<?xml version="1.0" encoding="UTF-8"?>
<svg id="uuid-fbc9b21a-c965-40f2-a75d-be6861ea8cb4" data-name="Capa 2" xmlns="http://www.w3.org/2000/svg" xmlns:xlink="http://www.w3.org/1999/xlink" viewBox="0 0 412.25 250.27">
  <defs>
    <style>
      .uuid-0499623e-e2ae-44bb-a034-31f398acec0d {
        clip-path: url(#uuid-c8286bea-d95c-48d6-af35-0eefa897d355);
      }

      .uuid-078aa525-e860-4a32-826d-c15656805c50 {
        stroke-width: .56px;
      }

      .uuid-078aa525-e860-4a32-826d-c15656805c50, .uuid-4a228400-3627-436a-a274-9841217bd9c3 {
        stroke: #e2d599;
        stroke-miterlimit: 10;
      }

      .uuid-078aa525-e860-4a32-826d-c15656805c50, .uuid-4a228400-3627-436a-a274-9841217bd9c3, .uuid-58fe7e9c-a92e-4568-a726-e51b7860090a {
        fill: none;
      }

      .uuid-58fe7e9c-a92e-4568-a726-e51b7860090a, .uuid-ac5573b4-8d2f-43b8-9e72-96a274212d17 {
        stroke-width: 0px;
      }

      .uuid-f692cbdb-f4ac-45c0-870f-432937e7f1cf {
        fill: #fff;
        font-family: Amenti-Bold, Amenti;
        font-size: 10px;
        font-weight: 700;
      }

      .uuid-ac5573b4-8d2f-43b8-9e72-96a274212d17 {
        fill: #e2d599;
      }

      .uuid-1279f2d6-b595-4442-923e-d37e62ace54f {
        letter-spacing: .72em;
      }

      .uuid-445e0f80-8bf0-4f47-a596-be6b507aa654 {
        letter-spacing: .8em;
      }

      .uuid-8ead1744-50be-49e4-adbe-47a9d8cee747 {
        letter-spacing: .8em;
      }

      .uuid-949a1f10-758b-4007-a29d-c13f4f3cf2e7 {
        letter-spacing: .72em;
      }
    </style>
    <clipPath id="uuid-c8286bea-d95c-48d6-af35-0eefa897d355">
      <rect class="uuid-58fe7e9c-a92e-4568-a726-e51b7860090a" x=".5" y=".5" width="411.25" height="249.27"/>
    </clipPath>
  </defs>
  <g id="uuid-8d48f1ea-76c0-4279-85c4-6fa387196f29" data-name="Capa 2">
    <g>
      <g class="uuid-0499623e-e2ae-44bb-a034-31f398acec0d">
        <polyline class="uuid-078aa525-e860-4a32-826d-c15656805c50" points="212.58 128.83 234.47 138.89 221.16 167.93 114.38 114.09 125.27 88.68 192.12 119.42"/>
        <polygon class="uuid-078aa525-e860-4a32-826d-c15656805c50" points="114.38 114.09 221.16 167.93 201.19 207.86 94.11 158.86 114.38 114.09"/>
        <polygon class="uuid-078aa525-e860-4a32-826d-c15656805c50" points="90.79 167.93 137.77 188.88 124.67 216.02 78.39 191.98 90.79 167.93"/>
        <polygon class="uuid-078aa525-e860-4a32-826d-c15656805c50" points="145.23 191.98 197.87 216.02 177.3 260.49 123.76 237.5 145.23 191.98"/>
        <polygon class="uuid-078aa525-e860-4a32-826d-c15656805c50" points="122.25 239.92 176.09 262.91 109.54 399.03 62.12 370.98 122.25 239.92"/>
        <path class="uuid-078aa525-e860-4a32-826d-c15656805c50" d="m72.64,199.09l47.79,24.8-66.55,140.65-46.28-28.74,46.88-89.23s7.86-13.76,3.02-20.34l15.12-27.15Z"/>
        <polygon class="uuid-078aa525-e860-4a32-826d-c15656805c50" points="252.17 145.73 227.67 198.06 383.45 276.1 408.86 232.85 252.17 145.73"/>
        <polygon class="uuid-078aa525-e860-4a32-826d-c15656805c50" points="224.34 206.83 186.83 283.81 227.67 305.44 264.87 228.23 224.34 206.83"/>
        <polygon class="uuid-078aa525-e860-4a32-826d-c15656805c50" points="272.44 230.43 235.84 309.37 276.97 327.83 312.67 250.69 272.44 230.43"/>
        <path class="uuid-078aa525-e860-4a32-826d-c15656805c50" d="m-32.25,150.27l-2.6-1.11-56.37,127.97,39.68,21.49L-5.17,208.92s4.45-10.43,11.13-7.46,27.82,12.98,27.82,12.98l-1.85,4.45,14.09,7.35,1.85-5.12,6.3,3.34,15.95-27.07v-3.34c0-2.6,48.99-108.66,48.99-108.66l-47.14-22.62-48.58,105.18s-.74,8.67-18.54-1.71l-37.09-15.95Z"/>
        <polygon class="uuid-078aa525-e860-4a32-826d-c15656805c50" points="7.61 159.17 15.22 162.33 64.02 59.78 21.9 41.98 -30.39 141.37 7.61 159.17"/>
        <polygon class="uuid-078aa525-e860-4a32-826d-c15656805c50" points="13.94 39.38 -33.36 15.65 -99.75 152.5 -53.39 175.12 -42.9 146.2 13.94 39.38"/>
        <polygon class="uuid-078aa525-e860-4a32-826d-c15656805c50" points="-45.23 303.44 5.21 208.92 50.83 232.61 1.13 331.26 -45.23 303.44"/>
        <polygon class="uuid-078aa525-e860-4a32-826d-c15656805c50" points="186.37 88.68 137.77 64.23 186.37 -32.2 232.92 -8.83 186.37 88.68"/>
        <path class="uuid-078aa525-e860-4a32-826d-c15656805c50" d="m197.6,85.42L239.6-5.86s4.45-5.19,1.85-7.42l22.33-38.85,51.84,22.91-69.72,146.04-21.78-10.7"/>
        <path class="uuid-078aa525-e860-4a32-826d-c15656805c50" d="m129.82,60.89l48.95-97.17s2.97-7.79,10.01-4.82,48.95,24.85,48.95,24.85l19.66-34.12v-4.45l34.49-69.72-48.21-21.88-38.57,76.03s0,6.68-10.38,2.6c-10.38-4.08-45.25-24.11-45.25-24.11L84.58,41.98l45.25,18.91Z"/>
        <polygon class="uuid-078aa525-e860-4a32-826d-c15656805c50" points="76.21 37.84 128 -67.47 76.21 -91.2 29.16 15.65 76.21 37.84"/>
        <polygon class="uuid-078aa525-e860-4a32-826d-c15656805c50" points="20.96 8.92 -28.24 -13.52 31.75 -131.34 84.58 -116.67 20.96 8.92"/>
        <polygon class="uuid-078aa525-e860-4a32-826d-c15656805c50" points="304.33 39.84 262.9 126.58 274.25 139.53 336.27 174.49 384.17 88.61 375.54 76.95 304.33 39.84"/>
        <polygon class="uuid-078aa525-e860-4a32-826d-c15656805c50" points="390.22 92.92 344.04 180.1 415.25 219.38 473.51 109.32 390.22 92.92"/>
        <polygon class="uuid-078aa525-e860-4a32-826d-c15656805c50" points="448.05 -112.16 362.6 62.89 309.35 35.22 377.27 -112.16 448.05 -112.16"/>
        <path class="uuid-078aa525-e860-4a32-826d-c15656805c50" d="m455.82-109.49l-84.59,174.24s31.07,16.95,32.37,17.38,25.46,2.16,25.46,2.16l78.55-167.88-51.79-25.89Z"/>
        <text class="uuid-f692cbdb-f4ac-45c0-870f-432937e7f1cf" transform="translate(62.11 47.46) rotate(25.2)"><tspan class="uuid-1279f2d6-b595-4442-923e-d37e62ace54f" x="0" y="0">C</tspan><tspan class="uuid-445e0f80-8bf0-4f47-a596-be6b507aa654" x="15.24" y="0">ALLE 85</tspan></text>
        <text class="uuid-f692cbdb-f4ac-45c0-870f-432937e7f1cf" transform="translate(214.34 215.5) rotate(-64.8)"><tspan class="uuid-949a1f10-758b-4007-a29d-c13f4f3cf2e7" x="0" y="0">C</tspan><tspan class="uuid-8ead1744-50be-49e4-adbe-47a9d8cee747" x="15.24" y="0">ARRERA 15</tspan></text>
        <path class="uuid-ac5573b4-8d2f-43b8-9e72-96a274212d17" d="m220.44,97.36c-.84-2-2.05-3.79-3.59-5.33-1.54-1.54-3.33-2.75-5.33-3.59-2.07-.87-4.26-1.32-6.52-1.32s-4.46.44-6.52,1.32c-2,.84-3.79,2.05-5.33,3.59-1.54,1.54-2.75,3.33-3.59,5.33-.87,2.07-1.32,4.26-1.32,6.52,0,3.79,2.71,10.47,8.04,19.85,3.93,6.91,7.92,12.83,7.96,12.89l.76,1.12.76-1.12c.04-.06,4.03-5.98,7.96-12.89,5.34-9.38,8.04-16.06,8.04-19.85,0-2.26-.44-4.46-1.32-6.52Zm-6.62,6.07c0,4.86-3.96,8.82-8.82,8.82s-8.82-3.96-8.82-8.82,3.96-8.82,8.82-8.82,8.82,3.96,8.82,8.82Z"/>
      </g>
      <rect class="uuid-4a228400-3627-436a-a274-9841217bd9c3" x=".5" y=".5" width="411.25" height="249.27"/>
    </g>
  </g>
</svg>