<?xml version="1.0" encoding="UTF-8"?>
<svg id="Capa_1" data-name="Capa 1" xmlns="http://www.w3.org/2000/svg" viewBox="0 0 28 28">
  <defs>
    <style>
      .cls-1 {
        fill: #fff;
        stroke-width: 0px;
      }
    </style>
  </defs>
  <path class="cls-1" d="m17.14,9.06c.53.07,1.01-.32,1.08-.86.07-.54-.31-1.04-.84-1.1-.53-.07-1.01.32-1.08.86-.07.54.31,1.04.84,1.1Z"/>
  <polygon class="cls-1" points="19.88 10.06 19.86 9.93 19.82 9.8 19.74 9.71 19.65 9.6 19.56 9.52 19.45 9.46 19.33 9.42 19.2 9.39 19.08 9.38 18.96 9.39 18.85 9.42 18.75 9.49 18.66 9.57 17.78 11.02 16.35 11.19 15.44 12.8 18.77 12.55 19.78 10.5 19.84 10.35 19.88 10.2 19.88 10.06"/>
  <path class="cls-1" d="m16.51,16.02l-.06-.19-.09-.2-.12-.2-2.92-2.58-4.09,7.06-.07.12-.04.13v.12s.04.11.04.11l.06.1.08.1.12.09.12.08.14.07.14.04.15.03h.15s.14-.02.14-.02l.13-.05.11-.07.08-.1,1.38-2.23,3.38-.52.18-.06.17-.06.16-.09.15-.11.14-.14.12-.14.11-.17.08-.17.06-.18.04-.19.02-.2v-.19s-.04-.2-.04-.2Zm-3.71.93l.08-.14.84-1.38.08-.15,1.3,1.25-2.3.42Z"/>
  <polygon class="cls-1" points="9.16 12.54 8.12 14.41 9.78 14.01 9.16 12.54"/>
  <polygon class="cls-1" points="11.9 14.28 10.43 14.41 10.88 16.02 11.9 14.28"/>
  <polygon class="cls-1" points="10.32 14.42 9.97 14.46 9.83 14.11 8.12 14.52 10.8 16.12 10.32 14.42"/>
  <path class="cls-1" d="m11.91,14.17l-.45-.29,1.24-2.32,2.02-.42.24-.09c.26-.14.45-.29.49-.62.06-.53-.27-.96-.78-1.03-.12-.02-2.91.61-2.91.61l-1.7,2.95-.81-.49.79,1.87,1.86-.17Z"/>
</svg>