<?xml version="1.0" encoding="UTF-8"?>
<svg id="uuid-8f92591a-507a-4ebb-81b7-c40ae2445ede" data-name="Capa 2" xmlns="http://www.w3.org/2000/svg" viewBox="0 0 36.94 36.43">
  <defs>
    <style>
      .uuid-c5d91a38-4924-4a93-b402-06f7b60d6c1e {
        fill: #fff;
        stroke-width: 0px;
      }
    </style>
  </defs>
  <path class="uuid-c5d91a38-4924-4a93-b402-06f7b60d6c1e" d="m24.5,7.47c1.17,0,2.13-.95,2.13-2.13s-.95-2.13-2.13-2.13-2.13.95-2.13,2.13.95,2.13,2.13,2.13"/>
  <path class="uuid-c5d91a38-4924-4a93-b402-06f7b60d6c1e" d="m23.74,19.99c-.08-.06-.16-.11-.24-.16h0,0s-.06-.03-.08-.05l-1.22-.69-5.01-2.89h0s-.02,0-.02,0l-7.85,13.6-.36.62c-.05.07-.09.15-.13.22h0s0,0,0,0c-.01.02-.02.05-.03.07h0s0,.01,0,.01c-.1.22-.15.47-.15.73,0,.97.73,1.75,1.62,1.75.53,0,1.01-.28,1.3-.7l.45-.78,2.08-3.61,8.56-2.29c.1-.02.2-.05.3-.08l.09-.02h0c1.18-.44,2.03-1.64,2.03-3.06,0-.63-.17-1.21-.45-1.7-.22-.39-.52-.72-.87-.97m-4.6,3.36l-2.73.73,1.95-3.39,1,.58,2.39,1.38-2.61.7Z"/>
  <path class="uuid-c5d91a38-4924-4a93-b402-06f7b60d6c1e" d="m9.48,18.58l.26.74.74-.12.2-.03,3.59-.61-1.54-.9,2.94-5.1,4.15-.88h0c.68-.18,1.18-.83,1.18-1.62,0-.91-.69-1.65-1.53-1.65-.13,0-.26.02-.38.05l-5.52,1.17h-.01s-3.67,6.36-3.67,6.36l-1.69-.99,1.21,3.4.07.19Z"/>
  <polygon class="uuid-c5d91a38-4924-4a93-b402-06f7b60d6c1e" points="8.03 15.08 5.72 19.01 9.22 18.42 8.03 15.08"/>
  <polygon class="uuid-c5d91a38-4924-4a93-b402-06f7b60d6c1e" points="11.95 22.73 14.29 18.74 10.75 19.34 11.95 22.73"/>
  <polygon class="uuid-c5d91a38-4924-4a93-b402-06f7b60d6c1e" points="10.55 19.38 9.81 19.5 9.62 19.54 9.55 19.35 9.29 18.61 5.72 19.21 11.76 22.75 10.55 19.38"/>
  <path class="uuid-c5d91a38-4924-4a93-b402-06f7b60d6c1e" d="m29.67,8.05c-.58,0-1.09.32-1.35.79-.05.08-.08.16-.12.25h0s-.15.34-.15.34l-1.13,2.54s0,0,0,0h-3.35s0,0,0,0l-1.67,3.01s0,0,0,0h7.06s0,0,0,0v-.02s0,0,0,0c0,0,0,0,0,0l1.78-4,.4-.91s0,0,0,0c.04-.14.07-.29.07-.45,0-.86-.7-1.55-1.55-1.55"/>
</svg>