<?xml version="1.0" encoding="UTF-8"?>
<svg id="uuid-660a46aa-3a0c-4007-a52d-52b94bf9076c" data-name="Capa 2" xmlns="http://www.w3.org/2000/svg" viewBox="0 0 36.94 36.43">
  <defs>
    <style>
      .uuid-2ecb9b9d-bff9-442b-8bbf-0263ee7bb242 {
        fill: #fff;
        stroke-width: 0px;
      }
    </style>
  </defs>
  <path class="uuid-2ecb9b9d-bff9-442b-8bbf-0263ee7bb242" d="m27.81,14.37c-.12-1.47-1.09-2.41-2.52-2.57-1.28-.17-3.94-.25-6.82-.23-2.88-.02-5.54.06-6.82.23-1.43.16-2.4,1.11-2.52,2.57-.14,1.28-.21,2.56-.21,3.84,0,1.28.07,2.56.21,3.84.12,1.47,1.09,2.41,2.52,2.57,1.28.17,3.94.25,6.82.23,2.88.02,5.54-.06,6.82-.23,1.43-.16,2.4-1.11,2.52-2.57.14-1.28.21-2.56.21-3.84,0-1.28-.07-2.56-.21-3.84Zm-11.25,6.71v-5.73l5.01,2.87-5.01,2.87Z"/>
</svg>