<?xml version="1.0" encoding="UTF-8"?>
<svg id="uuid-5ea7b3dd-2128-4e15-a4a1-17e3eea88f9c" data-name="Capa 2" xmlns="http://www.w3.org/2000/svg" viewBox="0 0 145.7 145.7">
  <defs>
    <style>
      .uuid-87290a49-01f5-4f31-b164-4517cffb04be {
        fill: #e2d599;
        stroke-width: 0px;
      }
    </style>
  </defs>
  <path class="uuid-87290a49-01f5-4f31-b164-4517cffb04be" d="m93.94,101.27c1.01.87,3.55,1.33,3.55,1.33,1.03,0,2.09-.31,3.06-.89,2.52-1.5,3.89-4.37,3.32-6.97-.48-2.21-2.54-3.95-5.25-4.45-.46-.08-.91-.13-1.36-.13-2,0-3.69.84-4.64,2.3-.79,1.22-.83,2.65-.79,3.62.1,2.28.83,4.07,2.12,5.18Zm.52-7.59c.54-.83,1.52-1.29,2.77-1.29h.02c.31,0,.63.03.95.09,1.77.32,3.2,1.45,3.48,2.74.41,1.88-.84,3.74-2.29,4.6-.44.26-1.15.58-1.96.58-.76,0-1.45-.27-2.07-.8-1.08-.94-1.31-2.66-1.35-3.6-.05-1.04.1-1.8.43-2.32Z"/>
  <path class="uuid-87290a49-01f5-4f31-b164-4517cffb04be" d="m78.39,117.85h.03c.13,0,.25,0,.38-.02,2.51-.2,4.64-2.23,4.97-4.73.27-2.06-.75-4.21-2.55-5.35l-.14-.09-.08-.14c-.14-.24-.37-.42-.64-.5-.51-.15-1.04-.22-1.57-.22-1.56,0-3.1.66-4.23,1.8-1.46,1.47-1.99,3.47-1.43,5.36.68,2.25,2.89,3.89,5.25,3.89Zm-2.26-7.68c.33-.33,1.24-1.11,2.57-1.14h.24s.19.14.19.14c.09.07.2.13.32.17,1.36.49,2.31,2.05,2.12,3.48-.19,1.43-1.52,2.69-2.96,2.81-.07,0-.15,0-.22,0-1.37,0-2.75-1.01-3.14-2.31-.47-1.58.46-2.73.88-3.16Z"/>
  <path class="uuid-87290a49-01f5-4f31-b164-4517cffb04be" d="m75.76,92.62c.35.09.91.17,1.57.07,1.33-.2,2.5-1.03,3.5-2.47,1.31-1.89,1.18-4.3-.31-5.99-1.03-1.16-2.51-1.7-4.05-1.46h-.03c-.5.08-1.02.28-1.54.61-2.04,1.06-3.06,2.85-2.81,4.9.26,2.12,1.74,3.87,3.68,4.35Zm.09-7.44c.3-.16.61-.26.91-.31,1.11-.17,1.83.49,2.09.78.63.71,1.05,2,.15,3.29-.64.92-1.32,1.44-2.02,1.55h0c-.23.04-.46.03-.68-.03-1.01-.25-1.88-1.35-2.03-2.55-.08-.67.02-1.91,1.59-2.73Z"/>
  <path class="uuid-87290a49-01f5-4f31-b164-4517cffb04be" d="m51.65,90.3c3.01-.01,5.93-1.3,7.82-3.45,2.81-3.19,3.32-8.19,1.21-11.89-1.15-2.01-3.32-3.36-6.13-3.79-.62-.1-1.27-.14-1.91-.14-3.01,0-6.01,1.04-7.82,2.73-.14.13-.27.26-.4.4-2.24,2.43-3.14,5.58-2.47,8.64.67,3.05,2.82,5.52,5.89,6.78,1.17.48,2.44.72,3.76.72h.05Zm-7.55-7.99c-.52-2.34.19-4.77,1.93-6.66.09-.1.18-.19.28-.28,1.41-1.31,3.8-2.13,6.24-2.14h.06c.54,0,1.08.04,1.61.12,1.23.19,3.46.79,4.54,2.7,1.63,2.85,1.22,6.86-.95,9.33-1.48,1.69-3.81,2.7-6.21,2.7-1.04,0-2.02-.19-2.92-.56-2.39-.98-4.05-2.88-4.57-5.21Z"/>
  <path class="uuid-87290a49-01f5-4f31-b164-4517cffb04be" d="m72.86,52.21h.06c.69,0,1.39-.07,2.06-.2,4.83-.94,8.06-3.76,9.09-7.96,1.18-4.8-.88-10.6-4.89-13.8-1.96-1.57-4.26-2.39-6.65-2.39-1.78,0-3.57.45-5.33,1.33-5.23,2.62-7.95,9.26-6.06,14.8,1.62,4.77,6.56,8.23,11.72,8.23Zm-4.67-21.05c1.47-.74,2.93-1.11,4.34-1.11,1.89,0,3.66.65,5.26,1.93,3.32,2.64,5.09,7.61,4.12,11.54-.83,3.36-3.37,5.54-7.36,6.32-.55.11-1.11.16-1.68.16-4.19,0-8.33-2.89-9.63-6.72-1.52-4.45.75-10,4.96-12.11Z"/>
  <path class="uuid-87290a49-01f5-4f31-b164-4517cffb04be" d="m85.9,75.57c2.3-.01,4.25-.95,5.37-2.57,1.38-2,1.24-4.48.89-6.87-.38-2.54-1.96-4.58-4.24-5.45-.77-.3-1.59-.45-2.41-.45-1.7,0-3.41.65-4.82,1.82-1.68,1.4-2.64,3.36-2.7,5.53-.06,2.28.87,4.49,2.57,6.07.57.53,1.29.96,2.19,1.32.97.38,2.05.58,3.12.58h.04Zm-2.35-2.64c-.63-.25-1.12-.53-1.48-.87-1.23-1.15-1.91-2.75-1.87-4.39.04-1.53.72-2.91,1.9-3.89,1.01-.84,2.21-1.3,3.39-1.31h.02c.56,0,1.1.1,1.61.3,1.54.59,2.57,1.94,2.83,3.71.29,1.93.42,3.91-.52,5.28-.71,1.02-2.02,1.61-3.6,1.61-.79,0-1.59-.15-2.3-.43Z"/>
</svg>