<?xml version="1.0" encoding="UTF-8"?>
<svg id="uuid-52b2933a-6825-4c31-9be7-557773025438" data-name="Capa 2" xmlns="http://www.w3.org/2000/svg" viewBox="0 0 36.94 36.43">
  <defs>
    <style>
      .uuid-8218baca-2a6d-4f05-81cf-f557fdd5b330 {
        fill: #fff;
        stroke-width: 0px;
      }
    </style>
  </defs>
  <path class="uuid-8218baca-2a6d-4f05-81cf-f557fdd5b330" d="m22.79,29.19h-7.93c-3.04,0-5.52-2.47-5.52-5.52v-7.93c0-3.04,2.47-5.52,5.52-5.52h7.93c3.04,0,5.52,2.47,5.52,5.52v7.93c0,3.04-2.47,5.52-5.52,5.52Zm-7.93-17.31c-2.13,0-3.86,1.73-3.86,3.86v7.93c0,2.13,1.73,3.86,3.86,3.86h7.93c2.13,0,3.86-1.73,3.86-3.86v-7.93c0-2.13-1.73-3.86-3.86-3.86h-7.93Z"/>
  <path class="uuid-8218baca-2a6d-4f05-81cf-f557fdd5b330" d="m18.83,24.55c-2.67,0-4.85-2.18-4.85-4.85s2.18-4.85,4.85-4.85,4.85,2.18,4.85,4.85-2.18,4.85-4.85,4.85Zm0-8.04c-1.76,0-3.19,1.43-3.19,3.19s1.43,3.19,3.19,3.19,3.19-1.43,3.19-3.19-1.43-3.19-3.19-3.19Z"/>
  <circle class="uuid-8218baca-2a6d-4f05-81cf-f557fdd5b330" cx="23.89" cy="14.64" r="1.16"/>
</svg>