<?xml version="1.0" encoding="UTF-8"?>
<svg id="uuid-57b8b55b-478d-4610-83b6-227ed768ca9b" data-name="Capa 2" xmlns="http://www.w3.org/2000/svg" viewBox="0 0 36.94 36.43">
  <defs>
    <style>
      .uuid-c9dff257-9783-4286-8302-20a6bca26686 {
        fill: #fff;
        stroke-width: 0px;
      }
    </style>
  </defs>
  <path class="uuid-c9dff257-9783-4286-8302-20a6bca26686" d="m23.63,13.15c-.91-.59-1.57-1.54-1.77-2.65-.04-.24-.07-.48-.07-.74h-2.9v11.63c-.05,1.3-1.13,2.35-2.44,2.35-.41,0-.79-.1-1.13-.28-.78-.41-1.31-1.22-1.31-2.16,0-1.35,1.09-2.44,2.44-2.44.25,0,.49.04.72.11v-2.96c-.24-.03-.48-.05-.72-.05-2.95,0-5.34,2.4-5.34,5.34,0,1.81.9,3.41,2.28,4.37.87.61,1.92.97,3.06.97,2.95,0,5.34-2.4,5.34-5.34v-5.9c1.14.82,2.53,1.3,4.04,1.3v-2.9c-.81,0-1.57-.24-2.2-.65Z"/>
</svg>