<?xml version="1.0" encoding="UTF-8"?>
<svg id="uuid-9a601ddb-fc92-449e-916d-cc2631bf9174" data-name="Capa 2" xmlns="http://www.w3.org/2000/svg" viewBox="0 0 145.7 145.7">
  <defs>
    <style>
      .uuid-8f889c78-2521-4151-82b4-27556ba9daed {
        fill: #e2d599;
        stroke-width: 0px;
      }
    </style>
  </defs>
  <path class="uuid-8f889c78-2521-4151-82b4-27556ba9daed" d="m41.44,78.76c-.25,0-.5,0-.76-.03-1.44-.1-2.87-.17-4.08-.24-1.57-.08-2.64-.89-3.16-2.4-.95-2.72-.16-5.54,2.04-7.35,2.03-1.67,4.42-2.68,7.11-3,.71-.08,1.53-.03,2.36.15,1.16.25,2.07.82,2.7,1.67.03-.37.06-.74.09-1.11.09-1.35.16-2.71.24-4.07.13-2.33.27-4.73.45-7.1.12-1.58.29-3.17.45-4.71.14-1.31.28-2.67.39-4.01.17-2.06.27-4.16.37-6.19l.02-.46c.09-1.83.84-2.77,2.5-3.12,1.57-.34,3.17-.64,4.72-.93,1.14-.21,2.29-.43,3.43-.66,3.66-.74,7.31-1.49,10.96-2.24l3.36-.69c.16-.03.33-.09.51-.15.69-.22,1.4-.12,1.98.28.58.4.94,1.02.98,1.71,0,.11,0,.23,0,.34v.09c0,1.64.01,3.29.02,4.93.02,3.7.05,7.52-.02,11.28-.07,3.72-.24,7.51-.39,11.16-.08,1.77-.15,3.54-.22,5.32-.03.88-.38,1.62-1.06,2.27-2.59,2.46-5.66,4.09-9.11,4.83-1.37.3-2.91-.03-4.23-.91-1.24-.82-2.08-2-2.32-3.24-.16-.81-.11-1.77.12-2.69.67-2.63,2.24-4.57,4.56-5.62,1.36-.62,2.71-1.04,4.02-1.26,1.89-.31,3.6.15,4.99,1.36.37-7.07.45-12.79.26-18.29-6.64,1.59-14.39,3.3-22.27,4.2-.07.72-.15,1.44-.22,2.16-.2,1.95-.39,3.79-.53,5.68-.24,3.4-.45,6.87-.66,10.22-.1,1.59-.19,3.19-.29,4.78-.05.79-.11,1.7-.2,2.6-.08.85-.49,1.53-1.21,2.05-.34.24-.67.49-1,.74-.31.24-.62.47-.94.7-1.79,1.29-3.79,1.94-5.97,1.94Zm1.85-11.9c-.2,0-.38.01-.56.03-2.46.29-4.65,1.21-6.51,2.74-1.82,1.5-2.47,3.83-1.68,6.08.37,1.07,1.03,1.57,2.13,1.63,1.21.06,2.65.14,4.09.24,2.19.15,4.2-.42,5.97-1.7.31-.22.62-.45.92-.68.34-.26.68-.51,1.02-.76.44-.31.68-.71.73-1.22.09-.88.15-1.78.19-2.56.1-1.59.2-3.19.29-4.78.2-3.35.41-6.82.66-10.24.14-1.9.34-3.84.53-5.72.09-.87.18-1.74.27-2.61l.05-.47.47-.05c8.23-.91,16.05-2.65,23.28-4.4l.69-.17.03.71c.24,6.09.14,12.4-.31,20.44l-.09,1.52-.95-1.19c-1.28-1.61-2.91-2.27-4.85-1.95-1.21.2-2.47.59-3.73,1.17-2.01.91-3.33,2.55-3.91,4.85-.19.76-.23,1.54-.11,2.19.18.94.84,1.85,1.82,2.5,1.05.69,2.3.97,3.35.74,3.24-.7,6.12-2.23,8.56-4.54.46-.44.67-.89.7-1.47.07-1.77.14-3.55.22-5.32.16-3.65.32-7.43.39-11.14.07-3.75.05-7.56.02-11.25-.01-1.65-.02-3.29-.02-4.94v-.1c0-.09,0-.18,0-.27-.02-.33-.2-.63-.48-.83-.28-.19-.63-.25-.94-.14-.24.08-.44.14-.67.19l-3.36.69c-3.66.75-7.31,1.5-10.97,2.24-1.14.23-2.29.45-3.44.66-1.54.29-3.14.59-4.69.92-1.14.24-1.52.74-1.59,2.05l-.02.46c-.1,2.04-.2,4.16-.37,6.23-.11,1.35-.25,2.71-.39,4.03-.16,1.53-.33,3.12-.44,4.68-.18,2.36-.31,4.76-.45,7.08-.08,1.36-.16,2.72-.24,4.07-.05.74-.12,1.48-.19,2.2-.03.33-.06.66-.09.99l-.11,1.26-.88-.91c-.22-.23-.29-.47-.33-.61-.37-1.34-1.22-2.14-2.58-2.43-.49-.11-.97-.16-1.41-.16Z"/>
  <path class="uuid-8f889c78-2521-4151-82b4-27556ba9daed" d="m86.05,89.45c-1.23,0-2.47-.18-3.71-.53-1.51-.43-2.55-1.42-3.01-2.86-.39-1.25-.21-2.46.55-3.61,1.31-1.98,3.17-3.24,5.53-3.73,1.65-.35,4.12-.65,6.48.68.39.22.76.49,1.11.76.07-.21.14-.43.2-.64l1.38-4.44c.95-3.06,1.9-6.12,2.86-9.18.38-1.22.8-2.46,1.2-3.65l.37-1.09c.1-.31.22-.58.35-.81.3-.54.89-1.11,2.01-.82,3.01.8,5.14,2.82,6.5,6.17.28.69.47,1.39.67,2.17.58,2.25,1.67,4.05,3.34,5.5.09.08.18.16.26.25.63.69.57,1.34.4,1.76-.26.67-.82,1.06-1.57,1.1-.9.04-1.76-.21-2.65-.77-2.52-1.6-4.34-3.24-5.71-5.15-.53-.73-1.09-1.51-1.67-2.26-.29-.37-.58-.65-.9-.86l-1.07,3.43c-1.4,4.5-2.81,9-4.22,13.51-.1.31-.21.63-.32.94-.07.2-.14.4-.21.6-.26.78-.72,1.36-1.37,1.71-2.24,1.21-4.52,1.82-6.82,1.82Zm1.98-9.87c-.72,0-1.51.09-2.38.27-2.05.43-3.66,1.52-4.8,3.24-.57.85-.7,1.71-.42,2.62.34,1.08,1.07,1.76,2.22,2.09,3.24.92,6.49.52,9.66-1.2.38-.21.65-.55.82-1.06.07-.21.14-.41.21-.62.11-.3.21-.6.3-.9,1.41-4.5,2.81-9,4.22-13.51l1.46-4.67.58.22c.75.29,1.37.77,1.95,1.52.6.77,1.17,1.55,1.7,2.29,1.29,1.79,3,3.33,5.39,4.85.67.43,1.32.62,1.97.59.37-.02.49-.19.55-.35.04-.09.1-.26-.18-.57-.05-.06-.11-.11-.16-.16-1.82-1.59-3.07-3.63-3.7-6.09-.19-.74-.37-1.4-.62-2.02-1.22-2.99-3.09-4.79-5.73-5.49-.42-.11-.56,0-.71.26-.1.17-.18.37-.26.62l-.37,1.09c-.4,1.19-.81,2.42-1.2,3.63-.96,3.06-1.91,6.12-2.86,9.18l-1.38,4.44c-.11.34-.22.67-.32,1l-.38,1.18-.64-.47c-.19-.14-.38-.28-.56-.42-.37-.28-.71-.55-1.08-.76-.98-.56-2.05-.83-3.29-.83Z"/>
  <path class="uuid-8f889c78-2521-4151-82b4-27556ba9daed" d="m58.42,113.7c-.74,0-1.47-.2-2.15-.61-1.12-.67-1.79-1.7-1.99-3.06-.34-2.35.21-4.53,1.64-6.46,1-1.36,2.64-3.23,5.29-3.81.44-.1.89-.14,1.33-.17-.09-.2-.18-.41-.27-.61l-1.91-4.2c-1.33-2.93-2.67-5.86-4-8.79-.53-1.17-1.04-2.37-1.54-3.53l-.45-1.05c-.13-.3-.22-.58-.28-.84-.14-.6-.08-1.42.96-1.95,2.78-1.41,5.71-1.32,8.96.27.67.33,1.28.72,1.95,1.17,1.93,1.29,3.94,1.9,6.15,1.88.12,0,.24,0,.36.02.93.1,1.31.62,1.47,1.04.26.67.1,1.33-.44,1.87-.64.63-1.45,1.02-2.49,1.19-2.95.48-5.39.47-7.69-.04-.88-.19-1.82-.4-2.75-.57-.47-.09-.87-.1-1.24-.05l1.58,3.48c1.92,4.22,3.84,8.45,5.76,12.68.14.3.26.61.39.91.08.2.16.39.24.58.33.76.37,1.5.12,2.19-1.33,3.69-3.68,6.37-6.99,7.98-.67.32-1.34.48-1.99.48Zm.66-34.91c-1.22,0-2.38.29-3.52.86-.39.2-.42.36-.35.66.04.19.11.4.22.64l.45,1.06c.49,1.15,1,2.35,1.53,3.51,1.33,2.93,2.66,5.86,3.99,8.78l1.91,4.2c.15.33.29.65.43.97l.5,1.13-.79.08c-.24.02-.47.04-.7.06-.46.03-.9.07-1.31.16-1.75.38-3.17,1.42-4.6,3.36-1.24,1.68-1.72,3.57-1.43,5.61.15,1.01.62,1.74,1.44,2.23.97.58,1.97.61,3.05.08,3.03-1.47,5.18-3.93,6.41-7.33.15-.41.12-.85-.09-1.34-.09-.2-.17-.4-.25-.6-.12-.29-.24-.58-.37-.87-1.92-4.23-3.84-8.45-5.76-12.67l-2.12-4.66.58-.22c.75-.28,1.54-.34,2.47-.17.96.18,1.9.38,2.79.58,2.15.48,4.45.48,7.25.02.79-.13,1.4-.41,1.86-.87.26-.26.24-.46.17-.63-.04-.09-.1-.26-.51-.31-.07,0-.15-.01-.23,0-2.41.04-4.71-.67-6.81-2.08-.64-.42-1.21-.8-1.81-1.1-1.55-.76-3.01-1.14-4.41-1.14Z"/>
</svg>