<?xml version="1.0" encoding="UTF-8"?>
<svg id="uuid-1ce4f5db-5475-4d63-90e0-9f5bb8ec78f3" data-name="Capa 2" xmlns="http://www.w3.org/2000/svg" viewBox="0 0 145.7 145.7">
  <defs>
    <style>
      .uuid-2c5f485e-7657-4473-9f0a-05d83862edbd {
        fill: #e2d599;
        stroke-width: 0px;
      }
    </style>
  </defs>
  <path class="uuid-2c5f485e-7657-4473-9f0a-05d83862edbd" d="m27.58,62.26c.16.03.32.05.49.05.75,0,1.6-.31,2.38-.88,1.11-.81,1.82-1.95,1.95-3.15.14-1.28-.47-2.27-1.01-2.86-.86-.95-2.13-1.59-3.16-1.59-.91,0-2.34.37-3.37,1.43-.78.81-1.18,1.88-1.15,3.09.09,3.18,3.71,3.88,3.87,3.91Zm.8-4.1c-.15,0-.29,0-.43-.01,0-.15,0-.29.01-.43.14,0,.28,0,.43.01,0,.14,0,.28-.01.43Zm3.59.08s0,.03,0,.05c-.6-.03-1.98-.08-3.24-.12,0-.15,0-.29.01-.43,1.28.04,2.67.1,3.25.12,0,.12,0,.25-.02.38Zm-.9-2.53c.37.41.78,1.03.89,1.81-.6-.03-1.96-.08-3.22-.12,0-.15,0-.3,0-.42,0-1.29-.11-2.36-.14-2.68.84.13,1.8.68,2.47,1.42Zm-2.36,2.8c1.23.04,2.57.09,3.19.12-.21.93-.82,1.81-1.7,2.45-.52.38-1.09.63-1.62.74.03-.56.09-2.02.13-3.31Zm-.49-4.25s.02,0,.03,0c.02.17.15,1.3.15,2.71,0,.13,0,.26,0,.41-.15,0-.29,0-.43-.01,0-.14,0-.28,0-.4,0-1.3-.11-2.38-.14-2.69.14-.02.28-.02.4-.02Zm-.29,4.23c.14,0,.28,0,.43.01-.04,1.33-.11,2.87-.13,3.37-.15.01-.29,0-.43,0,.02-.53.09-2.05.13-3.37Zm-2.77-2.93c.69-.71,1.57-1.08,2.32-1.22.03.32.14,1.36.14,2.63,0,.12,0,.25,0,.4-.27,0-.52,0-.73,0-1.21,0-2.24.08-2.69.13.12-.74.45-1.39.97-1.92Zm-1.01,2.27c.4-.04,1.46-.13,2.73-.13.21,0,.46,0,.73,0,0,.14,0,.28-.01.43-.27,0-.51,0-.72,0-1.27,0-2.33.09-2.75.13,0-.15,0-.29.01-.43Zm2.73.64c.21,0,.45,0,.71,0-.04,1.28-.1,2.74-.13,3.31-.31-.07-.94-.26-1.56-.63-1.05-.62-1.64-1.48-1.75-2.56.4-.04,1.46-.13,2.73-.13Z"/>
  <path class="uuid-2c5f485e-7657-4473-9f0a-05d83862edbd" d="m32.27,75.95l-.04-.34s0,0,0,0c0-.08,0-.13,0-.14-.06-.86-.65-1.81-1.57-2.54-1.07-.85-2.37-1.22-3.56-1.02-1.27.21-2.05,1.07-2.48,1.75-.69,1.08-.96,2.48-.68,3.47.25.88.99,2.15,2.29,2.86.59.32,1.24.48,1.91.48.45,0,.91-.07,1.38-.22,1.93-.6,2.51-2.31,2.67-3.52.06,0,.09,0,.09-.01l-.04-.34s0,0-.02,0c.01-.16.02-.3.02-.43.02,0,.04,0,.04,0Zm-3.52-3.53c.56.16,1.12.44,1.62.84.82.65,1.36,1.51,1.41,2.23h0s0,.06.01.15c-.51.04-1.42.11-2.47.11-.21,0-.45,0-.71,0,.04-1.29.11-2.77.13-3.33Zm-.92,3.65c.15,0,.29,0,.43.01,0,.15,0,.29-.01.43-.14,0-.28,0-.43-.01,0-.14,0-.28.01-.43Zm-3.57-.13c.61.03,1.97.08,3.23.12,0,.15,0,.29-.01.43-1.26-.04-2.64-.1-3.23-.12,0-.14,0-.28.01-.43Zm2.16,3.66c-1.18-.64-1.86-1.8-2.08-2.6-.03-.09-.04-.19-.06-.29.62.03,1.96.08,3.19.12,0,.15,0,.3,0,.42,0,1.4.12,2.53.15,2.74-.42-.06-.82-.19-1.2-.4Zm1.08-3.88c-1.23-.04-2.57-.09-3.19-.12.1-.59.33-1.2.66-1.72.38-.6,1.07-1.37,2.19-1.55.16-.03.32-.04.48-.05-.02.42-.1,2.04-.14,3.44Zm.26,4.3l.2-.03s-.15-1.21-.15-2.73c0-.13,0-.26,0-.41.15,0,.29,0,.43.01,0,.14,0,.28,0,.4,0,1.48.14,2.66.15,2.77-.22.02-.43.01-.64,0Zm.51-4.28c-.14,0-.28,0-.43-.01.04-1.41.12-3.03.14-3.44.14.01.28.03.43.05-.02.5-.09,2.05-.14,3.4Zm3.34,1.63c-.34,1.28-1.09,2.11-2.24,2.46-.22.07-.43.12-.64.15-.01-.09-.15-1.26-.15-2.73,0-.12,0-.25,0-.4.27,0,.52,0,.73,0,1.01,0,1.89-.06,2.41-.1-.03.19-.07.39-.12.6Zm.16-.95c-.51.04-1.41.11-2.45.11-.21,0-.46,0-.73,0,0-.14,0-.28.01-.43.27,0,.51,0,.72,0,1.05,0,1.96-.06,2.47-.11,0,.13,0,.27-.02.43Z"/>
  <path class="uuid-2c5f485e-7657-4473-9f0a-05d83862edbd" d="m32.58,66.33h-.26c-1.2.07-4.82.04-6.98.02-.65,0-1.17-.01-1.42-.01-.28,0-.62-.01-.98-.02-1.36-.05-1.97-.05-2.19.17l-.07.07.08,2.53c0,.07-.02.26.11.42.08.09.22.2.5.2.09,0,.31,0,.61,0,1.25-.02,3.84-.06,5.81,0,.82.03,1.89.04,2.96.04,2.13,0,4.23-.03,4.26-.04h.17s.04-.16.04-.16c0-.01.09-.35.09-.85v-1.98c0-.09-.04-.18-.11-.25-.26-.25-1-.22-2.63-.14Zm2.31,2.37c0,.25-.02.45-.04.58-.88.01-4.87.07-7.03,0-.83-.03-1.76-.04-2.66-.04-1.26,0-2.44.02-3.17.03-.3,0-.51,0-.6,0-.08,0-.14-.02-.17-.04-.02-.03-.02-.09-.02-.1v-.02s-.07-2.35-.07-2.35c.3-.07,1.23-.04,1.8-.02.36.01.7.03.99.03.24,0,.76,0,1.41.01,2.17.02,5.79.05,7.01-.01h.26c.96-.06,2.04-.12,2.29,0v1.93Z"/>
  <path class="uuid-2c5f485e-7657-4473-9f0a-05d83862edbd" d="m28.88,47.97c.23,0,.42-.19.42-.42s-.19-.42-.42-.42-.42.19-.42.42.19.42.42.42Z"/>
  <path class="uuid-2c5f485e-7657-4473-9f0a-05d83862edbd" d="m28.99,50.97c0-.12-.03-.24-.09-.34-.04-.08-.1-.14-.17-.19-.02-.01-.03-.02-.05-.03h0,0s-.01,0-.02,0l-.24-.14-.99-.57h0s0,0,0,0l-1.55,2.68-.07.12s-.02.03-.03.04h0s0,0,0,0c0,0,0,0,0,.01h0s0,0,0,0c-.02.04-.03.09-.03.14,0,.19.14.34.32.34.11,0,.2-.05.26-.14l.09-.15.41-.71,1.69-.45s.04,0,.06-.02h.02s0,0,0,0c.23-.09.4-.32.4-.6Zm-1.17.14l-.54.14.39-.67.2.11.47.27-.51.14Z"/>
  <path class="uuid-2c5f485e-7657-4473-9f0a-05d83862edbd" d="m25.91,50.16l.05.15.15-.02h.04s.71-.13.71-.13l-.3-.18.58-1.01.82-.17h0c.13-.04.23-.16.23-.32,0-.18-.14-.33-.3-.33-.03,0-.05,0-.08.01l-1.09.23h0s-.72,1.25-.72,1.25l-.33-.2.24.67v.04Z"/>
  <polygon class="uuid-2c5f485e-7657-4473-9f0a-05d83862edbd" points="25.63 49.47 25.17 50.25 25.86 50.13 25.63 49.47"/>
  <polygon class="uuid-2c5f485e-7657-4473-9f0a-05d83862edbd" points="26.4 50.98 26.86 50.19 26.16 50.31 26.4 50.98"/>
  <polygon class="uuid-2c5f485e-7657-4473-9f0a-05d83862edbd" points="26.12 50.32 25.98 50.34 25.94 50.35 25.93 50.31 25.87 50.17 25.17 50.28 26.36 50.98 26.12 50.32"/>
  <path class="uuid-2c5f485e-7657-4473-9f0a-05d83862edbd" d="m29.75,49.45s0,0,0,0h0s0,0,0,0c0,0,0,0,0,0l.35-.79.08-.18s0,0,0,0c0-.03.01-.06.01-.09,0-.17-.14-.31-.31-.31-.11,0-.21.06-.27.16,0,.02-.02.03-.02.05h0s-.03.07-.03.07l-.22.5s0,0,0,0h-.66s0,0,0,0l-.33.59s0,0,0,0h1.39Z"/>
  <path class="uuid-2c5f485e-7657-4473-9f0a-05d83862edbd" d="m52.72,80.79c.2,0,.36-.16.36-.36s-.16-.36-.36-.36-.36.16-.36.36.16.36.36.36Z"/>
  <path class="uuid-2c5f485e-7657-4473-9f0a-05d83862edbd" d="m52.59,82.92s-.03-.02-.04-.03h0,0s0,0-.01,0l-.21-.12-.85-.49h0s0,0,0,0l-1.34,2.32-.06.11s-.02.02-.02.04h0s0,0,0,0c0,0,0,0,0,.01h0s0,0,0,0c-.02.04-.03.08-.03.12,0,.16.12.3.28.3.09,0,.17-.05.22-.12l.08-.13.35-.61,1.46-.39s.03,0,.05-.01h.02s0,0,0,0c.2-.07.35-.28.35-.52,0-.11-.03-.21-.08-.29-.04-.07-.09-.12-.15-.17Zm-.78.57l-.46.12.33-.58.17.1.41.23-.44.12Z"/>
  <path class="uuid-2c5f485e-7657-4473-9f0a-05d83862edbd" d="m50.17,82.68l.04.13.13-.02h.03s.61-.11.61-.11l-.26-.15.5-.87.71-.15h0c.12-.03.2-.14.2-.27,0-.16-.12-.28-.26-.28-.02,0-.04,0-.07,0l-.94.2h0s-.63,1.08-.63,1.08l-.29-.17.21.58v.03Z"/>
  <polygon class="uuid-2c5f485e-7657-4473-9f0a-05d83862edbd" points="49.92 82.08 49.52 82.75 50.12 82.65 49.92 82.08"/>
  <polygon class="uuid-2c5f485e-7657-4473-9f0a-05d83862edbd" points="50.59 83.38 50.98 82.71 50.38 82.81 50.59 83.38"/>
  <polygon class="uuid-2c5f485e-7657-4473-9f0a-05d83862edbd" points="50.35 82.81 50.22 82.84 50.19 82.84 50.18 82.81 50.13 82.68 49.52 82.79 50.55 83.39 50.35 82.81"/>
  <path class="uuid-2c5f485e-7657-4473-9f0a-05d83862edbd" d="m53.6,80.89c-.1,0-.19.05-.23.13,0,.01-.01.03-.02.04h0s-.03.06-.03.06l-.19.43s0,0,0,0h-.57s0,0,0,0l-.28.51s0,0,0,0h1.2s0,0,0,0h0s0,0,0,0c0,0,0,0,0,0l.3-.68.07-.15h0s.01-.05.01-.08c0-.15-.12-.26-.26-.26Z"/>
  <path class="uuid-2c5f485e-7657-4473-9f0a-05d83862edbd" d="m143.67,40.35c-.61-.69-9.57-6.19-10.63-6.84-.12-.09-1.43-1-2.45-.53-.52.24-2.18,1.78-4.85,4.29-1.7,1.6-3.47,3.26-4.49,4.09-1.79,1.46-2.66,2.3-2.98,2.62-.34-.25-.89-.47-1.34-.03-.25.23-10.57,9.53-14.2,13.17-3.62,3.62-7.44,7.03-8.17,7.67-.05-.04-.12-.17-.16-.48-.08-.75,0-2.01,0-2.03v-.22s-.21,0-.21,0c-.11,0-10.31-.3-15.71-.41v-4.71h.92l-.17-.32s-.38-.69-1.26-1.4c-.83-.67-2.29-2.37-2.8-3.14-.41-.61-1.67-5.25-2.12-6.99l-.18-.7-.04.11-.04-.11-.18.7c-.45,1.74-1.72,6.38-2.12,6.99-.51.76-1.96,2.47-2.8,3.14-.88.71-1.25,1.37-1.26,1.4l-.17.32h.92v4.71c-5.4.11-15.6.41-15.71.41h-.22s.01.23.01.23c0,.01.08,1.28,0,2.03-.03.31-.11.44-.16.48-.73-.64-4.55-4.05-8.17-7.67-3.64-3.64-13.95-12.94-14.2-13.17-.44-.44-1-.22-1.34.03-.32-.32-1.19-1.17-2.98-2.62-1.02-.83-2.78-2.49-4.49-4.09-2.67-2.51-4.33-4.05-4.85-4.29-1.02-.46-2.32.44-2.45.53-1.06.65-10.02,6.14-10.63,6.84-.18.21-.26.45-.22.7.08.56.72.96.79,1.01h.01s1.81.96,3.41,2.14c1.52,1.12,6.61,4.22,7.44,4.72l-.65,39.79c-.23.24-.31.47-.24.67.04.11.12.19.22.25v.68c-.17.23-.38.49-.66.75-.51.47-.52.92-.35,1.19.11.17.29.28.51.31h0s-.03.05-.06.1c-.06.08-.13.15-.19.23-.06.07-.11.13-.15.19-.11.12-.22.23-.33.31-.22.17-.29.41-.18.63.12.26.46.45.8.45.05,0,.11,0,.16-.02.03,0,.06,0,.09,0,.02,0,.03,0,.04,0-.24.27-.5.53-.75.74-.5.41-.69.77-.58,1.09.11.3.45.42.75.43-.03.26-.52,1.22-1.39,2.01-.67.62-.68,1.2-.47,1.55.16.25.43.39.76.39.02,0,.05,0,.08,0-.14.18-.32.4-.49.6-.96,1.17-1.34,1.67-1.16,1.99.04.06.13.17.33.17.03,0,.07,0,.11,0,.15-.02.28-.03.39-.03.22,0,.26.05.26.05,0,0,.07.14-.36.75-.08.11-.32.46-.12.74.1.13.27.19.53.19.16,0,.34-.02.57-.08h.02s.02-.02.02-.02c.08-.03.5-.18.72-.18.08,0,.14,0,.19-.01.02,0,.05,0,.07,0,.03,0,.06,0,.17.09.1.07.18.12.24.16.15.09.15.09.15.38,0,.59-.21,6.6-.21,6.67v.09s.09,0,.09,0c.04.15.13.29.26.39.27.22.69.29,1.17.29.4,0,.83-.05,1.25-.11h.06c.69-.11,2.06-.17,3.65,0,1.71.17,14.04-.07,14.56-.08,1.95,0,2.61-.54,2.63-.56l5.97-4.85c.53-.33.64-.82.66-1.11.32.01.94.03,1.5.03.42,0,.81,0,1.05-.04.59-.07.79-.54.8-.9l2.86-2.62c.19-.08.87-.41.87-1.22,0-.3-.03-1.01-.06-1.86l.99.05s.09,0,.18,0c.25,0,.67-.05.89-.33.44.07,1.78.25,3.15.25.21,0,.42,0,.63-.01,1.35-.06,2.41-.11,2.85-.13-.02,1.93-.05,3.87-.07,5.34,0,.49.13.82.39,1,.28.19.6.12.72.08h.02v.05s1.89-.13,4,.08c1.09.11,1.86.16,2.7.16s1.77-.05,3.19-.16c2.8-.22,5.34-.22,8.85-.22,1.58,0,2.56.02,3.41.03.85.01,1.55.03,2.56.02v.04h2.24c.12.04.44.11.72-.08.26-.18.39-.51.39-1-.02-1.47-.05-3.41-.07-5.34.44.02,1.5.07,2.85.13.21,0,.42.01.63.01,1.36,0,2.71-.19,3.15-.25.22.29.64.33.89.33.09,0,.15,0,.18,0l.99-.05c-.03.84-.06,1.56-.06,1.86,0,.81.69,1.14.87,1.22l2.86,2.62c0,.36.2.82.8.9.24.03.64.04,1.05.04.57,0,1.18-.02,1.5-.03.02.3.13.78.66,1.11l5.97,4.85s.68.56,2.63.56c.52.01,12.85.26,14.56.08,1.59-.16,2.96-.1,3.65,0h.06c.42.07.85.12,1.25.12.48,0,.9-.07,1.17-.29.13-.1.22-.24.26-.39h.09s0-.09,0-.09c0-.06-.21-6.08-.21-6.67,0-.29,0-.29.15-.38.06-.04.15-.09.24-.16.1-.08.14-.09.17-.09.02,0,.04,0,.07,0,.05,0,.1.01.19.01.22,0,.63.15.72.18l.02.02h.02c.22.06.41.08.57.08.25,0,.43-.07.53-.19.2-.27-.04-.62-.12-.74-.42-.61-.36-.75-.36-.75,0,0,.04-.05.26-.05.11,0,.24.01.39.03.04,0,.07,0,.11,0,.2,0,.3-.11.33-.17.18-.32-.19-.83-1.16-1.99-.17-.2-.35-.42-.49-.6.03,0,.05,0,.08,0,.32,0,.6-.14.76-.39.22-.34.21-.93-.47-1.55-.87-.8-1.36-1.76-1.39-2.01.31-.01.65-.13.75-.43.11-.32-.08-.68-.58-1.09-.25-.2-.5-.46-.75-.74.01,0,.02,0,.04,0,.03,0,.06,0,.09,0,.05.01.1.02.16.02.34,0,.68-.19.8-.45.1-.22.04-.46-.18-.63-.1-.08-.21-.19-.33-.31-.05-.06-.1-.12-.15-.19-.06-.07-.12-.15-.19-.23-.04-.05-.06-.09-.06-.09h0c.22-.03.4-.14.51-.32.17-.27.17-.72-.35-1.19-.28-.26-.49-.52-.65-.75v-.68c.09-.06.17-.15.21-.25.07-.2,0-.43-.24-.67l-.65-39.79c.83-.5,5.92-3.6,7.44-4.72,1.6-1.18,3.4-2.12,3.41-2.13h.01c.07-.05.7-.45.79-1.01.04-.25-.04-.49-.22-.7Zm-22.14,1.34c1.03-.84,2.8-2.5,4.51-4.11,1.79-1.69,3.64-3.42,4.44-4.01.03,3.39.24,27.86,0,33.42-.21,4.88-.08,14.41-.02,18.48,0,.4.01.75.01,1.05-.27.06-.47.26-.57.39l-.1.1h0s-.26.4-.61.81c-.04-.05-.09-.11-.14-.17-.17-.2-.35-.42-.49-.6.03,0,.05,0,.08,0,.32,0,.6-.14.76-.39.22-.34.21-.93-.47-1.55-.87-.8-1.36-1.76-1.39-2.01.31-.01.65-.13.75-.43.11-.32-.08-.68-.58-1.09-.31-.25-.63-.59-.92-.93,0-5.84.04-18.39.17-19.83.08-.91.05-2.09.02-3.23-.03-1.2-.07-2.33.06-2.75.29-.95-.43-1.95-.46-2l-.02-.02-7.95-8.54c.31-.31,1.18-1.16,2.94-2.59Zm6.52,47.68c.07.19.26.32.52.35-.08.22-.38.81-.96,1.33-.04.03-.07.07-.1.1-.31-.46-.49-.85-.51-1,.31-.01.65-.13.75-.43.11-.32-.08-.68-.58-1.09-.7-.57-1.47-1.61-1.77-2.03-.24-.44-.54-.7-.9-.75-.05,0-.1-.01-.15-.01-.46,0-.8.34-.96.54l-.14.14h0s-.93,1.38-1.83,2.12c-.5.41-.69.77-.58,1.09.11.3.45.42.76.43-.02.24-.52,1.21-1.39,2.01-.08.07-.15.15-.21.22,0,0,0,0,0,0-.17-.2-.35-.42-.49-.6.03,0,.05,0,.08,0,.32,0,.6-.14.76-.39.22-.34.21-.93-.47-1.55-.04-.03-.07-.07-.11-.11.09-.1.13-.22.17-.36.02-.06.04-.14.08-.22.24-.36.68-.9.94-1.22.75-.9.92-1.13.76-1.34-.05-.07-.13-.11-.22-.11-.05,0-.12.01-.18.04-.1.04-.2.06-.3.06-.17,0-.3-.06-.37-.18-.12-.19-.08-.54.39-.97.41-.37.83-.88,1.12-1.36.24-.38.49-.9.37-1.21-.06-.15-.19-.24-.36-.24-.23,0-.36-.08-.38-.13,0,0-.06-.18.44-.58.62-.51,1.27-1.32,1.7-1.91h0s.24-.42.57-.65h.01s.02-.03.02-.03c.02-.01.03-.02.05-.03h0c.1-.06.19-.08.28-.08.03,0,.05,0,.08,0,.14.02.27.11.4.26l.04.04c.09.13.34.49.65.93h0c.5.65.95,1.13,1.35,1.46.5.41.44.58.44.58-.02.05-.15.13-.38.13-.17,0-.3.09-.36.24-.12.31.14.82.37,1.21.3.48.72.99,1.12,1.36.47.43.51.78.39.97-.07.11-.2.18-.37.18-.1,0-.2-.02-.3-.06-.07-.03-.13-.04-.18-.04-.09,0-.17.04-.22.11-.16.22.01.44.76,1.34.05.07.12.14.18.22-.12.13-.25.25-.38.36-.38.31-.53.6-.44.86Zm.12,5.63s.07.09.11.13c-.02.01-.03.03-.05.04-.5.41-.69.77-.58,1.09.11.3.45.42.76.43-.02.24-.52,1.21-1.39,2.01-.55.5-.66.98-.56,1.33-.07-.09-.15-.19-.26-.29-.62-.57-.98-1.23-1.05-1.48.29-.03.5-.17.57-.37.1-.28-.06-.59-.47-.92-.54-.44-1.14-1.25-1.37-1.58-.2-.36-.45-.57-.75-.62-.04,0-.08,0-.12,0-.39,0-.67.28-.8.45l-.11.11h0s-.72,1.07-1.43,1.65c-.11.09-.2.17-.27.26-.01-.02-.02-.04-.04-.05.08-.21.07-.37,0-.49-.1-.16-.31-.24-.66-.22-.07-.08-.13-.16-.19-.24.24-.36.69-.91.95-1.22.75-.9.92-1.13.76-1.34-.05-.07-.13-.11-.22-.11-.05,0-.12.01-.18.04-.1.04-.2.06-.3.06-.17,0-.3-.06-.37-.18-.09-.14-.09-.38.13-.68l.05-.03h-.01c.06-.09.14-.17.23-.25.41-.37.83-.88,1.12-1.36.24-.38.49-.9.37-1.21-.06-.15-.19-.24-.36-.24-.23,0-.36-.08-.38-.13,0,0-.06-.18.44-.58.62-.51,1.27-1.32,1.7-1.91h0s.24-.42.57-.65h.01s.02-.03.02-.03c.02-.01.03-.02.05-.03h0c.1-.06.19-.08.28-.08.03,0,.05,0,.08,0,.14.02.27.11.4.26l.04.04c.09.13.34.49.65.93h0c.5.65.95,1.13,1.35,1.46.5.41.44.58.44.58-.02.05-.15.13-.38.13-.17,0-.3.09-.36.24-.12.31.14.82.37,1.21.3.48.72.99,1.12,1.36.47.43.51.78.39.97-.07.11-.2.18-.37.18-.1,0-.2-.02-.3-.06-.07-.03-.13-.04-.18-.04-.09,0-.17.04-.22.11-.16.22.01.44.76,1.34Zm-1.55,5.36c.16.19.4.29.68.29.03,0,.05,0,.08,0-.14.18-.32.4-.49.6-.19.23-.36.43-.5.61-.03-.04-.06-.07-.09-.11-.1-.12-.21-.25-.3-.37.25-.02.45-.14.58-.33.11-.17.15-.41.05-.69Zm-6.22-2.19c.1.06.21.1.35.11-.04.14-.18.42-.41.74-.05-.07-.11-.14-.17-.21-.1-.12-.2-.24-.29-.36.22-.02.4-.12.53-.28Zm-.34-1.3s-.07-.07-.1-.1c.09.02.12.05.13.07,0,.01.02.04.02.07-.02-.02-.03-.03-.05-.05Zm-1.41-10.55c-.44-.36-.9-.9-1.26-1.36.18,0,.35,0,.5-.01.94-.03,2.03-.04,3.04-.03-.07.07-.14.14-.21.21-.67.62-.68,1.2-.47,1.55.14.22.38.36.66.39-.17.21-.49.63-.68.95-.1.17-.21.3-.31.43-.14.18-.28.35-.39.62l-.06.14c-.03.07-.06.14-.08.2-.58-.67-.91-1.34-.93-1.55.31-.01.65-.13.75-.43.11-.32-.08-.68-.58-1.09Zm2.71-3.64c.11.3.45.42.76.43-.02.18-.3.76-.8,1.38-.26,0-.52,0-.78,0-.9,0-1.83,0-2.66.04-.25,0-.52.01-.81.02-.07-.1-.13-.18-.18-.25-.24-.44-.54-.7-.9-.75-.05,0-.1-.01-.15-.01-.46,0-.8.34-.96.54l-.14.14h0s-.09.15-.24.35c-1.61,0-3.14-.02-3.64-.03-.02-.13-.04-.33-.04-.58v-1.93c.24-.11,1.33-.06,2.29,0h.26c1.22.07,4.84.04,7.01.02.48,0,.88,0,1.15,0-.18.24-.23.46-.16.66Zm-26.71-17.44s.02,0,.03,0h.05s.04-.05.04-.05c.47-.41,4.49-3.97,8.27-7.76,2.26-2.26,7.11-6.72,10.51-9.82-1.98,2.22-4.59,5.17-5.06,5.92-.29.28-3.86,3.65-6.33,5.76l-.07-.03s-.02.05-.02.1c-.39.33-.76.63-1.07.88-1.74,1.37-2.79,2.4-3.56,3.16-.29.28-.54.53-.75.72-.56.5-1.57,1.41-2.07,1.86.02-.32.03-.57.05-.75Zm9.56-7.18s0,.02,0,.03h-.02s.02-.02.03-.03Zm-2.98,2.91s-.08-.02-.13-.03c-.09-.02-.11-.05-.11-.05,0,.01,0,.02,0,.04l-.1-.04c.12-.1.25-.2.38-.3.3-.23.64-.52,1.01-.83.06.04.14.07.23.09.06.02.11.03.16.03,0,0,.02,0,.02,0,0,.05,0,.11,0,.18v28.46c-.28-.57-.65-1.3-1.08-2.11v-24.85c0-.36,0-.53-.37-.61Zm-1.51,1.2s-.08-.02-.14-.03c-.09-.02-.11-.05-.11-.05,0,.01,0,.02,0,.04l-.05-.02c.35-.31.74-.65,1.18-1.01.07.12.19.21.38.25.06.02.11.03.15.03,0,0,.02,0,.02,0,0,.05,0,.11,0,.18v24.06c-.34-.61-.7-1.25-1.08-1.89v-20.96c0-.36,0-.53-.37-.61Zm-1.29,1.2s-.08-.02-.13-.03c-.09-.02-.11-.05-.11-.05,0,.01,0,.02,0,.04l-.05-.02c.29-.28.62-.6,1.01-.95.07.09.19.16.34.19.06.02.11.03.16.03,0,0,.02,0,.02,0,0,.05,0,.11,0,.18v20.25c-.28-.46-.57-.91-.86-1.35v-17.69c0-.36,0-.53-.37-.61Zm-4.06,8.74c0-1.6.12-4,.21-5.58l.03.03s1.6-1.44,2.36-2.12c.22-.2.48-.45.77-.74.04-.04.09-.08.13-.13.07.08.18.14.33.18.06.02.11.03.15.03,0,0,.02,0,.02,0,0,.05,0,.11,0,.18v17.06s-.03-.04-.04-.06c-.72-1.03-1.54-2.61-2.33-4.15-.71-1.38-1.23-2.36-1.63-2.99v-1.73Zm-27.33-15.62c.18-.24.49-.59.94-.95.89-.71,2.36-2.45,2.88-3.23.43-.65,1.52-4.63,1.98-6.37.46,1.74,1.55,5.73,1.98,6.37.52.78,1.99,2.52,2.88,3.23.45.36.75.71.94.95h-.58v5.13c-.19,0-.38,0-.56-.01-.79-.01-1.66-.02-2.59-.02.39-.38.74-.94.74-1.75,0-1.7-.98-2.77-2.69-2.95v-.02s-.08,0-.12,0c-.04,0-.08,0-.12,0v.02c-1.71.18-2.69,1.24-2.69,2.95,0,.8.35,1.36.74,1.75-.93,0-1.81,0-2.59.02-.18,0-.36,0-.56.01v-5.13h-.58Zm7.19,5.1c-.45,0-.92,0-1.39,0-.47,0-.94,0-1.39,0-.45-.29-.99-.83-.99-1.75,0-1.5.84-2.39,2.38-2.53,1.53.14,2.38,1.03,2.38,2.53,0,.92-.54,1.46-.99,1.75Zm-22.53,2.75c.07-.6.03-1.47.01-1.88,1.63-.05,11.84-.35,16.47-.42,1.32-.02,2.88-.02,4.53,0h0s.08,0,.12,0c.04,0,.08,0,.12,0h0c1.65-.02,3.22-.02,4.53,0,4.63.08,14.84.38,16.47.42-.02.41-.05,1.28.01,1.88.04.32.12.55.25.7-.05.78-.29,4.75-.29,7.06v1.13c-.2-.23-.37-.34-.52-.35-.14,0-.26.05-.34.17-.06.09-.2.31-.39.63l-.1-.12c-.05-.11-.17-.33-.42-.38-.21-.04-.42.06-.62.3-.07.09-.34.52-.74,1.19l-.08-.1c-.04-.11-.16-.32-.39-.36-.2-.04-.39.06-.58.29-.08.09-.39.62-.84,1.42-.17-.21-.49-.51-.93-.51-.05,0-.1,0-.15.01-.35.06-.66.31-.9.75-.3.42-1.07,1.46-1.77,2.03-.5.41-.69.77-.58,1.09.11.3.45.42.75.43-.02.21-.35.88-.93,1.55-.02-.06-.05-.13-.08-.2l-.06-.14c-.11-.26-.24-.44-.39-.62-.1-.13-.2-.26-.31-.43-.19-.31-.51-.73-.68-.95.28-.02.52-.16.66-.39.22-.34.21-.93-.47-1.55-.87-.8-1.37-1.77-1.39-2.01.31-.01.65-.13.76-.43.11-.32-.08-.68-.58-1.09-.9-.74-1.82-2.1-1.83-2.11h0s-.14-.15-.14-.15c-.16-.2-.49-.54-.96-.54-.05,0-.1,0-.15.01-.35.06-.66.31-.9.75-.3.42-1.07,1.46-1.77,2.03-.5.41-.69.77-.58,1.09.11.3.45.42.75.43-.03.26-.52,1.22-1.39,2.01-.05.04-.09.09-.13.13l-.92-1.13-.07-.07c-.16-.2-.49-.54-.96-.54-.05,0-.1,0-.15.01-.35.06-.66.31-.9.75-.3.42-1.07,1.46-1.77,2.03-.4.33-.61.63-.61.91-.05.07-.11.15-.15.24-.13.19-.36.49-.62.83-.07-.09-.13-.18-.2-.29-.19-.31-.51-.73-.68-.95.28-.02.52-.16.66-.39.22-.34.21-.93-.47-1.55-.87-.8-1.37-1.77-1.39-2.01.31-.01.65-.13.76-.43.11-.32-.08-.68-.58-1.09-.9-.74-1.82-2.1-1.83-2.11h0s-.14-.15-.14-.15c-.16-.2-.49-.54-.96-.54-.05,0-.1,0-.15.01-.35.06-.66.31-.9.75-.3.42-1.07,1.46-1.77,2.03-.5.41-.69.77-.58,1.09.11.3.45.42.75.43-.03.26-.52,1.22-1.39,2.01-.67.62-.68,1.2-.47,1.55.16.25.43.39.76.39.03,0,.05,0,.08,0-.14.18-.32.4-.49.6-.05.06-.09.11-.14.17-.35-.41-.61-.79-.61-.8h0s-.1-.11-.1-.11c-.1-.13-.31-.34-.58-.4-1.18-2.09-2.12-3.74-2.26-3.91-.18-.23-.38-.33-.58-.29-.24.04-.35.26-.39.36l-.08.1c-.4-.67-.67-1.1-.74-1.19-.2-.24-.41-.34-.62-.3-.25.05-.37.27-.42.38l-.1.12c-.19-.32-.33-.54-.39-.63-.08-.12-.21-.18-.34-.17-.16.01-.33.12-.52.35v-1.13c0-2.31-.24-6.28-.29-7.06.13-.15.21-.38.25-.7Zm31.31,21.15c-.07-.03-.13-.04-.18-.04-.09,0-.17.04-.22.11-.13.18-.04.36.39.89-.06.12-.13.23-.19.33-.09-.21-.27-.43-.56-.66-.9-.74-1.82-2.1-1.83-2.11h0s-.14-.15-.14-.15c-.16-.2-.49-.54-.96-.54-.05,0-.1,0-.15.01-.35.06-.66.31-.9.75-.3.42-1.07,1.46-1.77,2.03-.5.41-.69.77-.58,1.09.11.3.45.42.75.43-.02.21-.35.88-.93,1.55-.02-.06-.05-.13-.08-.2l-.06-.14c-.04-.1-.08-.18-.13-.26.28-.03.58-.15.67-.43.11-.32-.08-.68-.58-1.09-.02-.01-.03-.03-.05-.04.04-.05.08-.09.11-.13.75-.9.92-1.13.76-1.34-.05-.07-.13-.11-.22-.11-.05,0-.12.01-.18.04-.1.04-.2.06-.3.06-.17,0-.3-.06-.37-.18-.12-.19-.08-.54.39-.97.41-.37.83-.88,1.12-1.36.24-.38.49-.9.37-1.21-.06-.15-.19-.24-.36-.24-.23,0-.36-.08-.38-.13,0,0-.06-.18.44-.58.4-.33.85-.81,1.35-1.45h0c.31-.45.56-.81.65-.94l.04-.04c.13-.15.26-.24.4-.26.02,0,.05,0,.08,0,.09,0,.18.03.28.08h0s.03.02.05.04l.02.02h.01c.33.24.57.65.57.66h0c.43.6,1.07,1.41,1.7,1.92.5.41.44.58.44.58-.02.05-.15.13-.38.13-.17,0-.3.09-.36.24-.12.31.14.82.37,1.21.3.48.72.99,1.12,1.36.09.08.17.16.23.24h-.01s.05.05.05.05c.12.17.17.32.18.44-.07.13-.14.25-.21.37-.06.03-.14.05-.22.05-.1,0-.2-.02-.3-.06Zm.24.52s0,0,0,.01c0,0,0,0,0-.01,0,0,.01,0,.02,0Zm-1.22,1.19c-.17,0-.3.09-.36.24-.1.27.08.69.28,1.05-.02.14-.03.31,0,.51l.08,6.2c-.88-.75-1.75-2.04-1.76-2.05h0s-.14-.15-.14-.15c-.16-.2-.49-.54-.96-.54-.05,0-.1,0-.15.01-.35.06-.66.31-.9.75-.3.42-1.07,1.46-1.77,2.03-.16.13-.29.26-.39.39-.2-.28-.48-.64-.87-1.11-.17-.2-.35-.42-.49-.6.03,0,.05,0,.08,0,.32,0,.6-.14.76-.39.14-.22.18-.55,0-.93.03-.04.06-.08.09-.11.75-.9.92-1.13.76-1.34-.05-.07-.13-.11-.22-.11-.05,0-.12.01-.18.04-.1.04-.2.06-.3.06-.17,0-.3-.06-.37-.18-.12-.19-.08-.54.39-.97.41-.37.83-.88,1.12-1.36.24-.38.49-.9.37-1.21-.06-.15-.19-.24-.36-.24-.23,0-.36-.08-.38-.13,0,0-.06-.18.44-.58.4-.33.85-.81,1.35-1.45h0c.31-.45.56-.81.65-.94l.04-.04c.13-.15.26-.24.4-.26.02,0,.05,0,.08,0,.09,0,.18.03.28.08h0s.03.02.05.04l.02.02h.01c.33.24.57.65.57.66h0c.43.6,1.07,1.41,1.7,1.92.5.41.44.58.44.58-.02.05-.15.13-.38.13Zm.33.41c-.06.1-.11.19-.14.26-.01.01-.03.03-.05.05-.05-.12-.08-.21-.09-.27.09,0,.19-.02.28-.04Zm-.31,9.53c-.08-.17-.13-.3-.14-.37.04,0,.09,0,.13-.01v.38Zm-7.39,3.19c.16.25.43.39.76.39.02,0,.05,0,.08,0-.14.18-.32.4-.49.6-.05.06-.09.11-.14.17-.35-.41-.61-.79-.61-.8h0s-.1-.11-.1-.11c-.12-.16-.38-.41-.74-.41-.04,0-.08,0-.12,0-.08.01-.15.04-.22.07-.17-.3-.27-.53-.28-.64.31-.01.65-.13.76-.43.11-.32-.08-.68-.58-1.09-.9-.74-1.82-2.1-1.83-2.11h0s-.14-.15-.14-.15c-.16-.2-.49-.54-.96-.54-.05,0-.1,0-.15.01-.35.06-.66.31-.9.75-.26.37-.87,1.19-1.48,1.77-.47-.59-.73-1.14-.75-1.31.31-.01.65-.13.76-.43.11-.32-.08-.68-.58-1.09-.02-.01-.03-.03-.05-.04.04-.05.08-.09.11-.13.75-.9.92-1.13.76-1.34-.05-.07-.13-.11-.22-.11-.05,0-.12.01-.18.04-.1.04-.2.06-.3.06-.17,0-.3-.06-.37-.18-.12-.19-.08-.54.39-.97.41-.37.83-.88,1.12-1.36.24-.38.49-.9.37-1.21-.06-.15-.19-.24-.36-.24-.23,0-.36-.08-.38-.13,0,0-.06-.18.44-.58.4-.33.85-.81,1.35-1.45h0c.31-.45.56-.81.65-.94l.04-.04c.13-.15.26-.24.4-.26.02,0,.05,0,.08,0,.09,0,.18.03.28.08h0s.03.02.05.04l.02.02h.01c.33.24.57.65.57.66h0c.43.6,1.07,1.41,1.7,1.92.5.41.44.58.44.58-.02.05-.15.13-.38.13-.17,0-.3.09-.36.24-.12.31.14.82.37,1.21.3.48.72.99,1.12,1.36.09.08.17.16.23.24h-.01s.05.05.05.05c.21.3.22.53.13.68-.07.11-.2.18-.37.18-.1,0-.2-.02-.3-.06-.07-.03-.13-.04-.18-.04-.09,0-.17.04-.22.11-.16.22.01.44.76,1.34.28.34.79.95,1,1.31,0,.07,0,.14.03.21.11.3.45.42.75.43-.03.26-.52,1.22-1.39,2.01-.67.62-.68,1.2-.47,1.55Zm-.7,4.13c.15.18.36.43.55.68-.35,0-.68,0-1.02.01,0,0,0,0,0,0-.9-.74-1.82-2.1-1.83-2.11h0s-.14-.15-.14-.15c-.16-.2-.49-.54-.96-.54-.05,0-.1,0-.15.01-.35.06-.66.31-.9.75-.3.42-1.07,1.46-1.77,2.03-.14.11-.24.22-.34.32-.2.01-.39.02-.57.02-.07-.15-.2-.3-.4-.46-.13-.1-.26-.23-.38-.36.06-.08.13-.15.18-.22.75-.9.92-1.13.76-1.34-.05-.07-.13-.11-.22-.11-.05,0-.12.01-.18.04-.1.04-.2.06-.3.06-.17,0-.3-.06-.37-.18-.12-.19-.08-.54.39-.97.41-.37.83-.88,1.12-1.36.24-.38.49-.9.37-1.21-.06-.15-.19-.24-.36-.24-.23,0-.36-.08-.38-.13,0,0-.05-.17.4-.55,0,0,.02.02.02.03.11-.11.22-.21.33-.31,0,0,0,0-.01-.01.32-.31.67-.7,1.05-1.19h0c.31-.45.56-.81.65-.94l.04-.04c.13-.15.26-.24.4-.26.02,0,.05,0,.08,0,.09,0,.18.03.28.08h0s.03.02.05.04l.02.02h.01c.33.24.57.65.57.66h0c.43.6,1.07,1.41,1.7,1.92.5.41.44.58.44.58-.02.05-.15.13-.38.13-.17,0-.3.09-.36.24-.12.31.14.82.37,1.21.3.48.72.99,1.12,1.36.47.43.51.78.39.97-.07.11-.2.18-.37.18-.1,0-.2-.02-.3-.06-.07-.03-.13-.04-.18-.04-.09,0-.17.04-.22.11-.16.22.01.44.76,1.34Zm-10.44-16.52c.08-.09.16-.19.24-.3h0c.22-.32.4-.58.47-.67l.03-.03c.08-.1.16-.15.24-.16.01,0,.03,0,.04,0,.05,0,.1.01.16.04h0s.02.02.03.02l.03.02c.21.15.36.4.39.45h0c.31.43.78,1.02,1.23,1.39.25.21.29.32.29.34-.02.02-.09.05-.21.05-.15,0-.27.08-.32.21-.18.47.63,1.5,1.09,1.91.05.05.09.09.13.14-.17.21-.37.43-.6.64-.67.62-.68,1.2-.47,1.55.16.25.43.39.76.39.03,0,.05,0,.08,0-.14.18-.32.4-.49.6-.03.04-.06.08-.1.12-.76-.75-1.44-1.75-1.45-1.76h0s-.14-.15-.14-.15c-.16-.2-.49-.54-.96-.54-.05,0-.1,0-.15.01-.06,0-.11.03-.17.04l.04-3.26c.06-.57-.1-.9-.22-1.05Zm-2.9-6.66c.09-.26-.06-.54-.44-.86-.13-.1-.26-.23-.38-.36.06-.08.13-.15.18-.22.75-.9.92-1.13.76-1.34-.05-.07-.13-.11-.22-.11-.05,0-.12.01-.18.04-.1.04-.2.06-.3.06-.17,0-.3-.06-.37-.18-.12-.19-.08-.54.39-.97.41-.37.83-.88,1.12-1.36.24-.38.49-.9.37-1.21-.06-.15-.19-.24-.36-.24-.23,0-.36-.08-.38-.13,0,0-.06-.18.44-.58.4-.33.85-.81,1.35-1.45h0c.31-.45.56-.81.65-.94l.04-.04c.13-.15.26-.24.4-.26.02,0,.05,0,.08,0,.09,0,.18.03.28.08h0s.03.02.05.04l.02.02h.01c.33.24.57.65.57.66h0c.43.6,1.07,1.41,1.7,1.92.5.41.44.58.44.58-.02.05-.15.13-.38.13-.17,0-.3.09-.36.24-.12.31.14.82.37,1.21.3.48.72.99,1.12,1.36.47.43.51.78.39.97-.07.11-.2.18-.37.18-.1,0-.2-.02-.3-.06-.07-.03-.13-.04-.18-.04-.09,0-.17.04-.22.11-.16.22.01.44.76,1.34.16.19.38.46.59.73-.17.2-.35.39-.53.56-.09-.19-.27-.39-.53-.6-.9-.74-1.82-2.1-1.83-2.11h0s-.14-.15-.14-.15c-.16-.2-.49-.54-.96-.54-.05,0-.1,0-.15.01-.35.06-.66.31-.9.75-.3.42-1.07,1.46-1.77,2.03-.5.41-.69.77-.58,1.09.11.3.45.42.75.43-.02.15-.19.54-.51,1-.03-.03-.07-.07-.1-.1-.57-.53-.88-1.11-.96-1.33.26-.03.45-.16.52-.35Zm-.64-.11c-.08,0-.15.02-.21.06-.27-.48-.54-.97-.81-1.44.28.35.61.72.93.99.25.21.29.32.29.34-.02.02-.09.05-.21.05Zm14.46-2.61c.16.25.43.39.76.39.03,0,.05,0,.08,0-.14.18-.32.4-.49.6-.05.06-.09.11-.14.17-.35-.41-.61-.79-.61-.8h0s-.1-.11-.1-.11c-.12-.16-.38-.41-.74-.41-.04,0-.08,0-.12,0-.28.04-.51.23-.69.57-.12.17-.36.49-.62.8-.22-.29-.36-.49-.36-.5h0s-.14-.15-.14-.15c-.16-.2-.49-.54-.96-.54,0,0-.02,0-.03,0,.01-.01.02-.02.04-.03.4-.33.85-.81,1.35-1.45h0c.31-.45.56-.81.65-.94l.04-.04c.13-.15.26-.24.4-.26.02,0,.05,0,.08,0,.09,0,.18.03.28.08h0s.03.02.05.04l.02.02h.01c.19.15.35.34.45.48l.78,1.16c-.18.38-.14.71,0,.93Zm1.45,4.73c.05.05.09.09.13.14-.17.21-.37.43-.6.64-.61.56-.68,1.1-.52,1.45-.09-.19-.24-.39-.46-.59-.87-.8-1.37-1.77-1.39-2.01.31-.01.65-.13.76-.43.11-.32-.08-.68-.58-1.09-.42-.35-.85-.82-1.18-1.24.11-.13.23-.27.36-.43h0c.22-.32.4-.58.47-.67l.03-.03c.08-.1.16-.15.24-.16.01,0,.03,0,.04,0,.05,0,.1.01.16.04h.01s.02.02.03.02l.03.02c.21.15.36.4.39.45h0c.31.43.78,1.02,1.23,1.39.25.21.29.32.29.34-.02.02-.09.05-.21.05-.15,0-.27.08-.32.21-.18.47.63,1.5,1.09,1.91Zm-.6,3.32s-.06.08-.1.12c-.09-.09-.18-.19-.27-.28.12-.22.16-.53,0-.88,0,.02.02.04.03.06.16.25.43.39.76.39.03,0,.05,0,.08,0-.14.18-.32.4-.49.6Zm.44,1.4c-.02.05-.15.13-.38.13-.06,0-.12.01-.17.03-.09-.11-.17-.22-.26-.37-.19-.31-.51-.73-.68-.95.13-.01.25-.05.36-.1.23.25.46.48.69.67.5.41.44.58.44.58Zm-5.45-8.97c.09,0,.18.03.28.08h0s.03.02.05.04l.02.02h.01c.33.24.57.65.57.66h0c.43.6,1.07,1.41,1.7,1.92.5.41.44.58.44.58-.02.05-.15.13-.38.13-.17,0-.3.09-.36.24-.12.31.14.82.37,1.21.3.48.72.99,1.12,1.36.47.43.51.78.39.97-.07.11-.2.18-.37.18-.1,0-.2-.02-.3-.06-.07-.03-.13-.04-.18-.04-.09,0-.17.04-.22.11-.16.22.01.44.76,1.34.27.32.71.86.94,1.22.03.09.06.16.08.22.04.13.09.26.17.36-.04.04-.07.07-.11.11-.67.62-.68,1.2-.47,1.55.16.25.43.39.76.39.02,0,.05,0,.08,0-.14.18-.32.4-.49.6,0,0,0,0,0,0-.06-.07-.13-.15-.21-.22-.87-.8-1.37-1.77-1.39-2.01.31-.01.65-.13.76-.43.11-.32-.08-.68-.58-1.09-.9-.74-1.82-2.1-1.83-2.11h0s-.14-.15-.14-.15c-.16-.2-.49-.54-.96-.54-.05,0-.1,0-.15.01-.35.06-.66.31-.9.75-.3.42-1.07,1.46-1.77,2.03-.5.41-.69.77-.58,1.09.11.3.45.42.75.43-.02.15-.19.54-.51,1-.03-.03-.07-.07-.1-.1-.57-.53-.88-1.11-.96-1.33.26-.03.45-.16.52-.35.09-.26-.06-.54-.44-.86-.13-.1-.26-.23-.38-.36.06-.08.13-.15.18-.22.75-.9.92-1.13.76-1.34-.05-.07-.13-.11-.22-.11-.05,0-.12.01-.18.04-.1.04-.2.06-.3.06-.17,0-.3-.06-.37-.18-.12-.19-.08-.54.39-.97.41-.37.83-.88,1.12-1.36.24-.38.49-.9.37-1.21-.06-.15-.19-.24-.36-.24-.23,0-.36-.08-.38-.13,0,0-.04-.13.26-.42.06-.04.11-.08.16-.14,0,0,.02-.02.03-.02.4-.33.85-.81,1.35-1.45h0c.31-.45.56-.81.65-.94l.04-.04c.13-.15.26-.24.4-.26.02,0,.05,0,.08,0Zm-2.83,3.85c.06.01.13.02.19.02,0,.04-.02.1-.05.18-.05-.07-.09-.14-.14-.2Zm-5.75.15c.24-.38.49-.9.37-1.21-.06-.15-.19-.24-.36-.24-.23,0-.36-.08-.38-.13,0,0-.06-.18.44-.58.4-.33.85-.81,1.35-1.45h0c.31-.45.56-.81.65-.94l.04-.04c.13-.15.26-.24.4-.26.02,0,.05,0,.08,0,.09,0,.18.03.28.08h0s.03.02.05.04l.02.02h.01c.33.24.57.65.57.66h0c.43.6,1.07,1.41,1.7,1.92.46.37.45.55.44.58-.03.03-.06.05-.08.07-.06.03-.17.06-.3.06-.17,0-.3.09-.36.24-.12.31.14.82.37,1.21.1.17.22.34.35.51-.23.4-.61.92-1.11,1.37-.67.62-.68,1.2-.47,1.55.16.25.43.39.76.39.03,0,.05,0,.08,0-.14.18-.32.4-.49.6-.05.06-.09.11-.14.17-.35-.41-.61-.79-.61-.8h0s-.1-.11-.1-.11c-.12-.16-.38-.41-.74-.41-.04,0-.08,0-.12,0-.28.04-.51.23-.69.57-.1.14-.27.37-.47.62-.4-.71-1.17-2.12-2.08-3.74.19-.24.38-.48.52-.72Zm21.89,1.03c-.87-.8-1.37-1.77-1.39-2.01.31-.01.65-.13.76-.43.11-.32-.08-.68-.58-1.09-.9-.74-1.82-2.1-1.83-2.11h0s-.14-.15-.14-.15c-.16-.2-.49-.54-.96-.54-.05,0-.1,0-.15.01-.35.06-.66.31-.9.75-.3.42-1.07,1.46-1.77,2.03-.5.41-.69.77-.58,1.09.11.3.45.42.75.43-.02.15-.19.54-.51,1-.03-.03-.07-.07-.1-.1-.57-.53-.88-1.11-.96-1.33.26-.03.45-.16.52-.35.09-.26-.06-.54-.44-.86-.13-.1-.26-.23-.38-.36.06-.08.13-.15.18-.22.75-.9.92-1.13.76-1.34-.05-.07-.13-.11-.22-.11-.05,0-.12.01-.18.04-.1.04-.2.06-.3.06-.17,0-.3-.06-.37-.18-.12-.19-.08-.54.39-.97.41-.37.83-.88,1.12-1.36.24-.38.49-.9.37-1.21-.06-.15-.19-.24-.36-.24-.23,0-.36-.08-.38-.13,0,0-.06-.18.44-.58.4-.33.85-.81,1.35-1.45h0c.31-.45.56-.81.65-.94l.04-.04c.13-.15.26-.24.4-.26.02,0,.05,0,.08,0,.09,0,.18.03.28.08h0s.03.02.05.04l.02.02h.01c.33.24.57.65.57.66h0c.43.6,1.07,1.41,1.7,1.92.5.41.44.58.44.58-.02.05-.15.13-.38.13-.17,0-.3.09-.36.24-.12.31.14.82.37,1.21.3.48.72.99,1.12,1.36.47.43.51.78.39.97-.07.11-.2.18-.37.18-.1,0-.2-.02-.3-.06-.07-.03-.13-.04-.18-.04-.09,0-.17.04-.22.11-.16.22.01.44.76,1.34.27.32.71.86.94,1.22.03.09.06.16.08.22.04.13.09.26.17.36-.04.04-.07.07-.11.11-.67.62-.68,1.2-.47,1.55.16.25.43.39.76.39.03,0,.05,0,.08,0-.14.18-.32.4-.49.6,0,0,0,0,0,0-.06-.07-.13-.15-.21-.22Zm.63-.84c-.17,0-.3-.06-.37-.18-.12-.19-.08-.54.39-.97.41-.37.83-.88,1.12-1.36.24-.38.49-.9.37-1.21-.06-.15-.19-.24-.36-.24-.23,0-.36-.08-.38-.13,0,0-.06-.18.44-.58.4-.33.85-.81,1.35-1.45h0c.31-.45.56-.81.65-.94l.04-.04c.13-.15.26-.24.4-.26.02,0,.05,0,.08,0,.09,0,.18.03.28.08h0s.03.02.05.04l.02.02h.01c.13.1.24.22.34.33-1,1.75-2.52,4.46-3.84,6.84-.04-.02-.08-.03-.13-.03-.05,0-.12.01-.18.04-.1.04-.2.06-.3.06Zm-33.12-16.7c.09,1.58.21,3.98.21,5.58v1.73c-.4.63-.92,1.61-1.63,2.99-.79,1.54-1.61,3.12-2.33,4.15-.01.02-.03.04-.04.06v-17.06c0-.07,0-.14,0-.18,0,0,.02,0,.02,0,.04,0,.09-.02.16-.03.14-.04.25-.1.33-.18.04.04.09.09.13.13.29.29.55.54.77.74.77.68,2.35,2.11,2.36,2.12l.03-.03Zm-6.52-5.61c-.05.01-.1.02-.13.03-.37.07-.37.25-.37.61v24.85c-.43.81-.8,1.53-1.08,2.11v-28.46c0-.07,0-.14,0-.18,0,0,.02,0,.02,0,.04,0,.09-.02.16-.03.09-.02.16-.05.23-.09.37.31.71.59,1.01.83.13.1.26.2.38.3l-.1.04s0-.02,0-.04c0,0-.02.03-.11.05Zm-.08.64c0-.07,0-.14,0-.18,0,0,.02,0,.02,0,.04,0,.09-.02.15-.03.18-.05.31-.13.38-.25.44.36.83.7,1.18,1.01l-.05.02s0-.02,0-.04c0,0-.02.03-.11.05-.05.01-.1.02-.14.03-.37.07-.37.25-.37.61v20.96c-.38.64-.74,1.28-1.08,1.89v-24.06Zm1.51,1.2c0-.07,0-.14,0-.18,0,0,.02,0,.02,0,.04,0,.09-.02.16-.03.15-.04.26-.1.34-.19.39.35.72.67,1.01.95l-.05.02s0-.02,0-.04c0,0-.02.03-.11.05-.05.01-.1.02-.14.03-.37.07-.37.25-.37.61v17.69c-.29.44-.58.89-.86,1.35v-20.25Zm-3.38-5.36c3.79,3.79,7.8,7.35,8.27,7.76l.04.03h.05s.02.02.03.02c.01.18.03.44.05.75-.5-.45-1.51-1.36-2.07-1.86-.21-.19-.46-.44-.75-.72-.77-.76-1.82-1.79-3.56-3.16-.32-.25-.68-.55-1.07-.88,0-.05-.02-.09-.02-.1l-.07.03c-2.47-2.11-6.04-5.49-6.33-5.76-.47-.74-3.08-3.7-5.06-5.92,3.4,3.1,8.25,7.56,10.51,9.82Zm-1.14.65h-.02s0-.01,0-.02c0,0,.02.02.03.02Zm-26.29-24.51c.8.59,2.64,2.33,4.44,4.01,1.71,1.61,3.48,3.27,4.51,4.11,1.76,1.43,2.63,2.28,2.94,2.59l-7.95,8.54-.02.02s-.75,1.04-.46,2c.13.42.09,1.55.06,2.75-.03,1.14-.07,2.32.02,3.23.13,1.43.16,13.99.17,19.83-.29.34-.61.68-.92.93-.5.41-.69.77-.58,1.09.11.3.45.42.75.43-.03.26-.52,1.22-1.39,2.01-.67.62-.68,1.2-.47,1.55.16.25.43.39.76.39.03,0,.05,0,.08,0-.14.18-.32.4-.49.6-.05.06-.09.11-.14.17-.35-.41-.61-.79-.61-.8h0s-.1-.11-.1-.11c-.1-.13-.3-.33-.57-.39,0-.3,0-.65.01-1.05.06-4.07.19-13.6-.02-18.48-.24-5.56-.03-30.03,0-33.42Zm8.96,48.44c.28,0,.68,0,1.15,0,2.17.02,5.79.05,7.01-.01h.26c.96-.06,2.04-.12,2.29,0v1.93c0,.25-.02.45-.04.58-.5,0-2.03.03-3.64.03-.15-.21-.24-.34-.24-.34h0s-.14-.15-.14-.15c-.16-.2-.49-.54-.96-.54-.05,0-.1,0-.15.01-.35.06-.66.31-.9.75-.05.07-.11.16-.18.25-.29,0-.56-.01-.81-.02-.83-.03-1.76-.04-2.66-.04-.27,0-.53,0-.78,0-.5-.62-.78-1.2-.8-1.38.31-.01.65-.13.76-.43.07-.2.02-.42-.16-.66Zm2.28,5.39c.11.3.45.42.75.43-.02.21-.35.88-.93,1.55-.02-.06-.05-.13-.08-.2l-.06-.14c-.11-.26-.24-.44-.39-.62-.1-.13-.2-.26-.31-.43-.19-.31-.51-.73-.68-.95.28-.02.52-.16.66-.39.22-.34.21-.93-.47-1.55-.07-.07-.14-.14-.21-.21,1.01,0,2.1,0,3.04.03.16,0,.33,0,.5.01-.36.46-.82,1-1.26,1.36-.5.41-.69.77-.58,1.09Zm-2.56-4.89c-.02.05-.15.13-.38.13-.17,0-.3.09-.36.24-.12.31.14.82.37,1.21.3.48.72.99,1.12,1.36.47.43.51.78.39.97-.07.11-.2.18-.37.18-.1,0-.2-.02-.3-.06-.07-.03-.13-.04-.18-.04-.09,0-.17.04-.22.11-.16.22.01.44.76,1.34.27.32.71.86.94,1.22.03.09.06.16.08.22.04.13.09.26.17.36-.04.04-.07.07-.11.11-.67.62-.68,1.2-.47,1.55.16.25.43.39.76.39.03,0,.05,0,.08,0-.14.18-.32.4-.49.6,0,0,0,0,0,0-.06-.07-.13-.15-.21-.22-.87-.8-1.37-1.77-1.39-2.01.31-.01.65-.13.76-.43.11-.32-.08-.68-.58-1.09-.9-.74-1.82-2.1-1.83-2.11h0s-.14-.15-.14-.15c-.16-.2-.49-.54-.96-.54-.05,0-.1,0-.15.01-.35.06-.66.31-.9.75-.3.42-1.07,1.46-1.77,2.03-.5.41-.69.77-.58,1.09.11.3.45.42.75.43-.02.15-.19.54-.51,1-.03-.03-.07-.07-.1-.1-.57-.53-.88-1.11-.96-1.33.26-.03.45-.16.52-.35.09-.26-.06-.54-.44-.86-.13-.1-.26-.23-.38-.36.06-.08.13-.15.18-.22.75-.9.92-1.13.76-1.34-.05-.07-.13-.11-.22-.11-.05,0-.12.01-.18.04-.1.04-.2.06-.3.06-.17,0-.3-.06-.37-.18-.12-.19-.08-.54.39-.97.41-.37.83-.88,1.12-1.36.24-.38.49-.9.37-1.21-.06-.15-.19-.24-.36-.24-.23,0-.36-.08-.38-.13,0,0-.06-.18.44-.58.4-.33.85-.81,1.35-1.45h0c.31-.45.56-.81.65-.94l.04-.04c.13-.15.26-.24.4-.26.02,0,.05,0,.08,0,.09,0,.18.03.28.08h0s.03.02.05.04l.02.02h.01c.33.24.57.65.57.66h0c.43.6,1.07,1.41,1.7,1.92.5.41.44.58.44.58Zm1.36,12.49c.26.32.71.86.95,1.22-.06.08-.12.16-.19.24-.34-.01-.55.06-.66.22-.08.13-.08.28,0,.49-.01.02-.03.04-.04.05-.07-.08-.16-.17-.27-.26-.71-.58-1.42-1.63-1.43-1.64h0s-.11-.12-.11-.12c-.13-.17-.41-.45-.8-.45-.04,0-.08,0-.12,0-.3.05-.55.25-.75.62-.24.33-.83,1.14-1.37,1.58-.41.34-.57.65-.47.92.07.21.29.34.57.37-.07.25-.43.91-1.05,1.48-.11.1-.19.19-.26.29.1-.35-.01-.83-.56-1.33-.87-.8-1.37-1.77-1.39-2.01.31-.01.65-.13.76-.43.11-.32-.08-.68-.58-1.09-.02-.01-.03-.03-.05-.04.04-.05.08-.09.11-.13.75-.9.92-1.13.76-1.34-.05-.07-.13-.11-.22-.11-.05,0-.12.01-.18.04-.1.04-.2.06-.3.06-.17,0-.3-.06-.37-.18-.12-.19-.08-.54.39-.97.41-.37.83-.88,1.12-1.36.24-.38.49-.9.37-1.21-.06-.15-.19-.24-.36-.24-.23,0-.36-.08-.38-.13,0,0-.06-.18.44-.58.4-.33.85-.81,1.35-1.45h0c.31-.45.56-.81.65-.94l.04-.04c.13-.15.26-.24.4-.26.02,0,.05,0,.08,0,.09,0,.18.03.28.08h0s.03.02.05.04l.02.02h.01c.33.24.57.65.57.66h0c.43.6,1.07,1.41,1.7,1.92.5.41.44.58.44.58-.02.05-.15.13-.38.13-.17,0-.3.09-.36.24-.12.31.14.82.37,1.21.3.48.72.99,1.12,1.36.09.08.17.16.23.24h-.01s.05.05.05.05c.21.3.22.53.13.68-.07.11-.2.18-.37.18-.1,0-.2-.02-.3-.06-.07-.03-.13-.04-.18-.04-.09,0-.17.04-.22.11-.16.22.01.44.76,1.34Zm.33,1.91s0-.06.02-.07c.01-.02.05-.05.13-.07-.03.03-.07.07-.1.1-.02.02-.03.03-.05.05Zm.24,1.54c-.09.12-.2.24-.29.36-.06.07-.12.14-.17.21-.23-.32-.36-.6-.41-.74.14-.01.25-.05.35-.11.12.16.31.26.53.28Zm-6.7,2.6c.12.2.33.32.58.33-.1.12-.2.25-.3.37-.03.04-.06.07-.09.11-.14-.18-.31-.38-.5-.61-.17-.2-.35-.42-.49-.6.03,0,.05,0,.08,0,.28,0,.52-.11.68-.29-.1.28-.06.52.05.69ZM6.28,43.85c-1.24-.91-2.58-1.68-3.17-2.01,1.09-.8,5.18-3.77,7.97-5.38,1.18-.68,1.86-1.14,2.26-1.41.11-.07.21-.14.29-.19.01.07.03.15.06.24l-.17,13.34c-1.19-.73-5.83-3.56-7.23-4.59Zm7.55,8.82h.05s.23-17.63.23-17.63v-.03c-.04-.11-.06-.2-.07-.27-.03-.15-.06-.3-.21-.36-.17-.07-.3.02-.74.31-.4.27-1.06.72-2.23,1.4-2.96,1.71-7.37,4.93-8.16,5.52-.18-.14-.43-.38-.47-.62-.02-.12.02-.23.12-.35.43-.49,6.53-4.31,10.54-6.76h.01s1.08-.79,1.89-.55c-.02,2.22-.24,27.95,0,33.68.21,4.87.08,14.39.02,18.46,0,.42-.01.78-.01,1.08-.21.08-.39.26-.54.53-.18.25-.6.82-1.02,1.23l.58-35.64Zm-1.4,41.34c-.05,0-.11,0-.17.02-.02,0-.05,0-.07,0-.18,0-.37-.11-.41-.2,0-.02-.02-.05.06-.12.09-.07.18-.16.28-.25l.03.03.08-.1c.06-.08.12-.15.18-.21.54-.65.7-.84.55-1.05-.05-.07-.12-.1-.21-.1-.05,0-.1.01-.16.03-.06.03-.13.04-.19.04-.1,0-.17-.03-.21-.1-.07-.11-.04-.33.27-.61.46-.42,1.27-1.44,1.09-1.91-.05-.13-.17-.21-.32-.21-.12,0-.19-.03-.21-.05,0-.03.04-.14.29-.34.29-.24.62-.59.98-1.05h0c.22-.32.4-.58.47-.67l.03-.03c.08-.1.16-.15.24-.16.01,0,.03,0,.04,0,.05,0,.1.01.16.04h.01s.02.02.03.02l.03.02c.21.15.36.4.39.45h0c.31.43.78,1.02,1.23,1.39.25.21.29.32.29.34-.02.02-.09.05-.21.05-.15,0-.27.08-.32.21-.18.47.63,1.5,1.09,1.91.05.05.09.09.13.14-.17.21-.37.43-.6.64-.67.62-.68,1.2-.47,1.55.16.25.43.39.76.39.03,0,.05,0,.08,0-.14.18-.32.4-.49.6-.03.04-.06.08-.1.12-.76-.75-1.44-1.75-1.45-1.76h0s-.14-.15-.14-.15c-.16-.2-.49-.54-.96-.54-.05,0-.1,0-.15.01-.35.06-.66.31-.9.75-.15.21-.42.57-.73.96-.08-.05-.18-.09-.33-.09Zm29.73-2.97v15.06h0c-.01.2-.09.54-.47.77h-.01s-4.44,3.61-4.44,3.61v-11.18c0-.12-.1-.22-.22-.22s-.22.1-.22.22v11.53l-1.13.92s-.6.47-2.36.47c-.13,0-12.83.26-14.52.09-1.63-.16-3.04-.1-3.75,0h-.06c-.46.07-1.67.25-2.09-.08-.01-.01-.03-.02-.04-.03h.02s0-.09,0-.09c.02-.62.21-6.1.21-6.69,0-.54-.14-.71-.45-.9-.06-.03-.12-.07-.19-.12h-.01s-.01-.01-.01-.01c-.2-.07-.34-.1-.47-.1-.12,0-.22.03-.33.06-.05.01-.09.03-.15.04-.34.09-.59.17-.59.17-.22.05-.42.08-.57.08-.06,0-.1,0-.12-.01,0-.03.04-.1.11-.2.43-.61.54-.98.37-1.25-.11-.18-.33-.27-.66-.27-.11,0-.23,0-.37.03.16-.32.78-1.06,1.06-1.4.75-.9.92-1.13.76-1.34-.05-.07-.13-.11-.22-.11-.05,0-.12.01-.18.04-.1.04-.2.06-.3.06-.17,0-.3-.06-.37-.18-.12-.19-.08-.54.39-.97.41-.37.83-.88,1.12-1.36.24-.38.49-.9.37-1.21-.06-.15-.19-.24-.36-.24-.23,0-.36-.08-.38-.13,0,0-.06-.18.44-.58.4-.33.85-.81,1.35-1.45h0c.31-.45.56-.81.65-.94l.04-.04c.13-.15.26-.24.4-.26.02,0,.05,0,.08,0,.09,0,.18.03.28.08h0s.03.02.05.04l.04.03c.33.23.57.64.57.65h0c.43.6,1.07,1.41,1.7,1.92.5.41.44.58.44.58-.02.05-.15.13-.38.13-.17,0-.3.09-.36.24-.12.31.14.82.37,1.21.3.48.72.99,1.12,1.36.47.43.51.78.39.97-.07.11-.2.18-.37.18-.1,0-.2-.02-.3-.06-.07-.03-.13-.04-.18-.04-.09,0-.17.04-.22.11-.16.22.01.44.76,1.34.28.34.89,1.08,1.06,1.4-.14-.02-.26-.03-.37-.03-.33,0-.55.09-.66.27-.17.27-.06.64.37,1.25.07.11.1.17.11.2-.02,0-.06.01-.12.01-.11,0-.43-.02-.98-.2l-.08-.03-.14.43.08.03c.31.1.75.22,1.1.22.25,0,.43-.07.53-.19.2-.27-.04-.62-.12-.74-.42-.61-.36-.75-.36-.75,0,0,.04-.05.26-.05.11,0,.24.01.39.04.04,0,.07,0,.11,0,.2,0,.3-.11.33-.17.12-.21,0-.5-.36-.99.06-.07.11-.14.16-.19.58-.7.76-.91.6-1.13-.05-.07-.13-.11-.22-.11-.05,0-.11.01-.17.04-.07.03-.14.04-.21.04-.11,0-.19-.04-.24-.11-.08-.12-.04-.37.29-.68.62-.56,1.37-1.63,1.19-2.08-.05-.14-.19-.23-.34-.23-.14,0-.22-.04-.24-.06,0-.03.03-.15.32-.39.32-.26.68-.64,1.07-1.15h0c.24-.34.43-.62.51-.73l.03-.03c.09-.11.18-.17.27-.18.02,0,.03,0,.05,0,.06,0,.12.02.19.05h0s.02.02.03.03l.03.02c.23.16.4.44.43.49h0c.28.39.82,1.09,1.34,1.52.29.24.32.36.32.39-.02.02-.1.06-.24.06-.16,0-.29.09-.34.23-.18.45.57,1.52,1.19,2.08.34.31.37.56.3.68-.04.07-.13.11-.24.11-.07,0-.14-.01-.21-.04-.06-.02-.12-.04-.17-.04-.09,0-.17.04-.22.11-.14.2-.02.38.45.95-.12.13-.23.24-.33.32-.3.25-.42.48-.34.69.05.14.19.24.38.28-.07.18-.31.6-.7.96-.4.37-.4.73-.27.95.08.13.21.21.36.24-.05.07-.11.14-.17.2-.05.06-.22.27-.22.27l.11.08s.08.06.12.09l.1.08.08-.1c.05-.06.09-.11.13-.16.42-.51.54-.66.42-.83-.04-.06-.11-.09-.19-.09-.04,0-.08,0-.13.03-.05.02-.09.03-.13.03-.04,0-.1,0-.13-.06-.05-.08,0-.23.2-.42.35-.32.98-1.12.84-1.49-.04-.11-.15-.18-.27-.18-.05,0-.1,0-.12-.02.02-.03.06-.11.2-.22.22-.18.47-.45.75-.81.17-.24.31-.44.35-.5l.02-.02c.06-.07.11-.1.17-.11,0,0,.02,0,.03,0,.04,0,.07.01.12.03,0,0,.01,0,.02.01h.02c.15.12.27.31.29.34h0c.19.27.57.76.94,1.06.14.12.19.19.2.22-.02,0-.06.02-.12.02-.13,0-.23.07-.27.18-.14.37.48,1.17.84,1.49.2.19.25.34.2.42-.03.05-.09.06-.13.06s-.09,0-.13-.03c-.05-.02-.09-.03-.13-.03-.08,0-.14.03-.18.09-.13.18,0,.33.42.83.11.14.35.42.48.61-.01,0-.03,0-.04,0-.21,0-.35.06-.43.18-.14.22.02.5.19.75-.08,0-.22-.03-.43-.1l-.12-.04-.13.39.12.04c.17.06.42.13.62.13h0c.17,0,.28-.05.35-.14.1-.13.08-.3-.06-.5-.11-.16-.16-.25-.17-.3.01,0,.03,0,.05,0,.05,0,.12,0,.2.02.03,0,.05,0,.07,0,.15,0,.22-.08.25-.14.13-.22-.07-.5-.64-1.18-.05-.06-.11-.13-.17-.2.15-.03.28-.11.36-.24.14-.21.14-.58-.27-.95-.4-.36-.63-.77-.7-.96.19-.03.33-.13.38-.28.07-.21-.04-.44-.34-.69-.48-.4-.97-1.12-.98-1.13h0s-.08-.08-.08-.08c-.1-.12-.3-.32-.58-.32-.03,0-.06,0-.09,0-.09.01-.18.05-.26.11.04-.28-.07-.64-.48-1.01-.13-.12-.24-.24-.35-.35l.05-.06c.07-.08.13-.16.19-.23.57-.68.74-.89.58-1.1-.05-.07-.13-.11-.22-.11-.05,0-.1.01-.16.04-.07.03-.14.04-.2.04-.1,0-.19-.04-.23-.11-.07-.12-.04-.36.29-.66.6-.55,1.33-1.59,1.16-2.03-.05-.14-.18-.22-.33-.22-.14,0-.21-.04-.23-.06,0-.03.03-.14.31-.38.31-.25.66-.63,1.04-1.12h0c.24-.35.44-.63.5-.71l.03-.03c.09-.11.17-.16.27-.18.02,0,.03,0,.05,0,.06,0,.12.02.18.05h0s.02.02.03.03l.03.02c.22.16.39.42.42.48h0c.27.38.8,1.06,1.31,1.48.28.23.31.35.31.38-.02.02-.09.06-.23.06-.15,0-.28.08-.33.22-.17.44.56,1.48,1.16,2.03.33.3.36.54.29.66-.04.07-.12.11-.23.11-.06,0-.13-.01-.2-.04-.06-.02-.11-.04-.16-.04-.09,0-.17.04-.22.11-.14.19-.01.38.43.92-.12.13-.23.23-.32.31-.29.24-.41.47-.33.67.05.14.19.24.37.27-.07.18-.3.58-.68.93-.39.36-.39.71-.26.92.08.12.2.2.35.23-.05.06-.11.13-.16.19-.05.06-.16.2-.16.2l-.06.07.11.08s.08.06.11.09l.1.08.08-.1c.05-.06.09-.11.13-.16.41-.49.53-.64.41-.81-.04-.06-.11-.09-.18-.09-.04,0-.08,0-.13.03-.04.02-.09.03-.13.03s-.1,0-.13-.06c-.05-.07,0-.23.19-.41.34-.31.96-1.09.81-1.45-.04-.11-.15-.18-.27-.18-.05,0-.09,0-.11-.02.02-.03.06-.1.2-.21.22-.18.46-.44.73-.79.17-.23.3-.42.34-.49l.02-.02c.05-.07.11-.1.16-.11,0,0,.02,0,.03,0,.03,0,.07.01.11.03,0,0,.01,0,.02.01h.02c.15.12.26.3.28.33h0c.19.27.56.74.91,1.04.13.11.18.18.2.21-.02,0-.06.02-.11.02-.12,0-.23.07-.27.18-.14.36.47,1.14.81,1.45.2.18.24.33.19.41-.03.05-.08.06-.13.06s-.08,0-.13-.03c-.05-.02-.09-.03-.13-.03-.07,0-.14.03-.18.09-.13.17,0,.32.41.81.11.13.33.4.46.59-.01,0-.02,0-.04,0-.21,0-.34.06-.42.18-.13.21.01.49.18.73-.08,0-.22-.03-.41-.1l-.12-.04-.13.39.12.04c.17.06.41.12.61.12h0c.16,0,.28-.05.35-.14.1-.13.07-.29-.06-.49-.11-.15-.15-.24-.17-.29.01,0,.03,0,.05,0,.05,0,.12,0,.19.02.03,0,.05,0,.07,0,.15,0,.22-.08.25-.13.12-.22-.07-.49-.62-1.15-.05-.06-.11-.13-.16-.19.15-.03.27-.11.35-.23.13-.21.13-.56-.26-.92-.38-.35-.61-.75-.68-.93.18-.03.32-.13.37-.27.07-.2-.04-.43-.33-.67-.47-.39-.95-1.09-.96-1.1h0s-.08-.08-.08-.08c-.09-.12-.29-.32-.57-.32-.03,0-.06,0-.09,0-.09.01-.17.05-.25.1.04-.27-.07-.62-.47-.98-.62-.57-.95-1.21-1.03-1.43.28-.03.49-.16.56-.37.1-.27-.06-.57-.46-.9-.69-.57-1.38-1.59-1.39-1.6h0s-.11-.11-.11-.11c-.13-.17-.4-.44-.78-.44-.04,0-.08,0-.12,0-.29.05-.54.25-.73.6-.23.32-.81,1.11-1.34,1.54-.4.33-.56.63-.46.9.07.2.28.34.56.37-.03.08-.09.22-.18.38-.2-.28-.48-.64-.87-1.1-.17-.2-.35-.42-.49-.6.03,0,.05,0,.08,0,.32,0,.6-.14.76-.39.14-.22.18-.55,0-.93.03-.04.06-.08.09-.11.75-.9.92-1.13.76-1.34-.05-.07-.13-.11-.22-.11-.05,0-.12.01-.18.04-.1.04-.2.06-.3.06-.17,0-.3-.06-.37-.18-.12-.19-.08-.54.39-.97.41-.37.83-.88,1.12-1.36.24-.38.49-.9.37-1.21-.06-.15-.19-.24-.36-.24-.23,0-.36-.08-.38-.13,0,0-.06-.18.44-.58.4-.33.85-.81,1.35-1.45h0c.31-.45.56-.81.65-.94l.04-.04c.13-.15.26-.24.4-.26.02,0,.05,0,.08,0,.09,0,.18.03.28.08h0s.03.02.05.04l.02.02h.01c.33.24.57.65.57.66h0c.43.6,1.07,1.41,1.7,1.92.5.41.44.58.44.58-.02.05-.15.13-.38.13-.17,0-.3.09-.36.24-.12.31.14.82.37,1.21.3.48.72.99,1.12,1.36.47.43.51.78.39.97-.07.11-.2.18-.37.18-.1,0-.2-.02-.3-.06-.07-.03-.13-.04-.18-.04-.09,0-.17.04-.22.11-.16.22.01.44.76,1.34.31.37.88,1.06,1.05,1.4l.06.12.08-.1c.05-.06.12-.13.19-.19l.06-.05-.04-.07c-.18-.32-.52-.75-1.06-1.41-.17-.2-.35-.42-.49-.6.03,0,.05,0,.08,0,.32,0,.6-.14.76-.39.22-.34.21-.93-.47-1.55-.87-.8-1.37-1.77-1.39-2.01.31-.01.65-.13.76-.43.11-.32-.08-.68-.58-1.09-.46-.37-.91-.9-1.26-1.34,1.84,0,3.47-.03,3.5-.03h.17s.04-.16.04-.16c0-.01.09-.35.09-.85v-1.98c0-.09-.04-.18-.11-.25-.26-.25-1-.22-2.63-.14h-.26c-1.2.07-4.82.04-6.98.02-.65,0-1.17-.01-1.42-.01-.05,0-.11,0-.17,0-.9-.74-1.82-2.09-1.83-2.11h0s-.14-.15-.14-.15c-.16-.2-.49-.54-.96-.54-.05,0-.1,0-.15.01-.35.06-.66.31-.9.75-.1.14-.24.34-.42.57,0-6.05-.04-17.91-.17-19.33-.08-.88-.05-2.1-.02-3.18.04-1.29.07-2.4-.08-2.89-.21-.7.33-1.51.39-1.61l8.08-8.68s.55-.52.9-.17h0s.44.4,1.12,1.02l-.06.06c.07.07,6.66,7.34,7.33,8.43.17.27.23.49.17.59-.06.11-.3.13-.4.12l-.28-.02.06.28c.04.23.06,3.44.08,7.16.03,4.9.08,11,.17,14.66.17,6.54.09,9.43.09,9.45h.43s.08-2.91-.09-9.47c-.09-3.66-.14-9.75-.17-14.65-.03-3.91-.04-6.25-.07-6.99.18-.02.43-.1.56-.31.04-.07.07-.14.08-.22.48.45,1.22,1.14,2.06,1.92l-.06.06s.01.02.02.03c-.02.02-.07.05-.2.09-.5.14-.58.3-.57.66,0,.1,0,.22-.02.38-.05.34.02,3.8.13,9.03.06,3.06.13,5.96.13,7.01,0,2.47.09,30.78.09,31.07h.43c0-.29-.09-28.6-.09-31.07,0-1.06-.06-3.95-.13-7.02-.08-3.84-.18-8.63-.13-8.96.03-.2.02-.34.02-.45,0-.05,0-.12,0-.13,0,0,.05-.04.26-.1.22-.06.37-.16.45-.28.52.48,1.07.97,1.61,1.46,0,0-.03.03-.11.05-.05.01-.1.02-.13.03-.37.07-.37.25-.37.61v36.83h.43v-36.83c0-.07,0-.14,0-.18,0,0,.02,0,.02,0,.04,0,.09-.02.15-.03.14-.04.25-.09.32-.18.43.38.86.76,1.26,1.1-.04,0-.07.02-.1.02-.37.07-.37.25-.37.61v29.39c-.35.8-.49,1.33-.43,1.58Zm-16.12,10.29c-.04.05-.08.11-.13.17-.03-.04-.06-.08-.1-.12.08,0,.16-.02.23-.05Zm5.95-2.93s-.08.1-.12.16c-.03-.04-.06-.07-.09-.11.07,0,.14-.02.21-.05Zm10.74,7.29s-.09,0-.13,0v-14.77c-.02-.09.01-.51.67-1.89.79-1.66,2.62-5.18,4.46-7.8.74-1.05,1.56-2.65,2.36-4.2.77-1.49,1.82-3.52,2.2-3.7.69,1.02,8.5,14.46,8.58,14.59l.02.03.03.02s.7.64.62,2.24l-.34,15.01c-.06,0-.11,0-.17,0,.03-1.67.25-13.33.25-14.36,0-1.12-.33-1.69-.38-1.77-.36-.62-8.01-13.78-8.35-14.29-.17-.25-.36-.29-.5-.28-.35.04-.57.49-.64.65-.44.77-8.18,14.38-8.52,15.15-.23.52-.16,1-.05,1.72.07.5.17,1.13.2,2.01.08,1.95-.24,10.27-.3,11.62Zm6.47-6.34c.03.92.06,1.72.06,2.03,0,.61-.6.82-.63.83h-.04s-2.64,2.42-2.64,2.42l.17-12.93c0-.23.03-.33.05-.36.01,0,.02.01.03.02l.06.05h3.02c-.05.6-.19,2.59-.19,3.96,0,.97.06,2.65.11,4Zm2.19-.42c-.08.21-.52.23-.72.21l-1.04-.05c-.05-1.3-.1-2.83-.1-3.74,0-1.38.15-3.41.19-3.96h1.8c.01,2.84-.01,7.18-.12,7.54Zm6.94,0c-.43.02-1.5.07-2.88.13-1.43.07-3.05-.14-3.62-.22.12-1.17.12-5.62.11-7.44h5.76c.46,0,.57.06.65.67.04.33.02,3.5-.02,6.86Zm1,6.41h-.04s-.04.01-.04.01c0,0-.22.08-.37-.02-.13-.09-.2-.31-.2-.64,0-.49.17-11.98.08-12.68-.1-.79-.36-1.05-1.07-1.05h-11.29c-.11-.06-.27-.1-.41-.03-.3.14-.3.61-.3.76l-.17,13.42h0s0,.03,0,.03c0,0,.01.13-.03.26-.06.16-.18.25-.38.28-.38.05-1.22.04-1.86.03.06-1.4.38-9.66.3-11.65-.04-.91-.13-1.55-.21-2.07-.1-.68-.16-1.05.01-1.43.27-.6,5.68-10.16,8.51-15.12l.02-.03c.05-.13.15-.28.21-.33,0,0,.02.02.03.04.34.5,8.26,14.13,8.34,14.27h0s.3.49.3,1.51-.22,12.74-.25,14.36c-.7,0-1.14.04-1.15.04v.06s-.02,0-.02,0Zm4.11.02c-.64-.06-1.27-.1-1.82-.11l.34-15c.08-1.64-.58-2.4-.73-2.55-.42-.73-5.93-10.2-7.92-13.52l.24-.29.03-.04v-.04s.04-.06.06-.08c.02.01.06.04.13.12.31.37,5.25,8.88,8.49,14.51l.02.04.05.03s.22.24.16.8h0s-.17,12.67-.17,12.67c0,.14.11.26.25.26h0c.14,0,.26-.11.26-.25l.17-12.64c.08-.74-.19-1.09-.31-1.21-.73-1.26-5.38-9.32-7.5-12.88,0,0,0,0,0-.01l.22-.28.03-.04v-.04s.03-.03.03-.04c.02.02.04.04.08.08.28.35,4.64,8.16,7.5,13.32v.04s.06.03.06.03c.03.03.19.22.13.72h0s-.15,11.64-.15,11.64c0,.14.11.26.25.26h0c.14,0,.26-.11.26-.25l.1-7.84c.08-.06.16-.09.24-.11.02,0,.05,0,.08,0,.09,0,.18.03.28.08h0s.03.02.05.04l.04.03c.33.23.57.64.57.65h0c.43.6,1.07,1.41,1.7,1.92.5.41.44.58.44.58-.02.05-.15.13-.38.13-.17,0-.3.09-.36.24-.12.31.14.82.37,1.21.13.21.28.42.45.63-.46.39-.64.74-.53,1.05.11.3.45.42.75.43-.03.26-.52,1.22-1.39,2.01-.67.62-.68,1.2-.47,1.55.16.25.43.39.76.39.03,0,.05,0,.08,0-.14.18-.32.4-.49.6-.05.06-.09.11-.14.17-.35-.41-.61-.79-.61-.8h0s-.1-.11-.1-.11c-.12-.16-.38-.41-.74-.41-.04,0-.08,0-.12,0-.28.04-.51.23-.69.57-.13.18-.38.52-.67.85.03.03.05.06.08.09.07.1.14.2.19.31.13-.15.27-.32.42-.5h0c.22-.32.4-.58.47-.67l.03-.03c.08-.1.16-.15.24-.16.01,0,.03,0,.04,0,.05,0,.1.01.16.04h0s.02.02.03.02l.03.02c.21.15.36.4.39.45h0c.31.43.78,1.02,1.23,1.39.05.04.09.08.13.11h.37c-1.07.03-1.91-.02-3.2-.15Zm5.79,0c-.41.03-.77.06-1.11.08.38-.32.8-.79,1.27-1.38h0c.31-.45.56-.81.65-.94l.04-.04c.13-.15.26-.24.4-.26.02,0,.05,0,.08,0,.09,0,.18.03.28.08h0s.03.02.05.04l.02.02h.01c.33.24.57.65.57.66h0c.35.48.83,1.1,1.33,1.59-1.22.03-2.39.08-3.61.18Zm8.89-.22c-.53,0-1.03,0-1.52,0,.19-.35.35-.75.25-1-.06-.15-.19-.24-.36-.24-.23,0-.36-.08-.38-.13,0,0-.06-.18.44-.58.4-.33.85-.81,1.35-1.45h0c.31-.45.56-.81.65-.94l.04-.04c.13-.15.26-.24.4-.26.02,0,.05,0,.08,0,.09,0,.18.03.28.08h0s.03.02.05.04l.02.02h.01c.33.24.57.65.57.66h0c.43.6,1.07,1.41,1.7,1.92.5.41.44.58.44.58-.02.05-.15.13-.38.13-.17,0-.3.09-.36.24-.1.26.07.68.27,1.03-.05,0-.1,0-.15,0-.86-.01-1.84-.03-3.42-.03Zm4.11.04c-.25-.39-.39-.7-.4-.83.31-.01.65-.13.76-.43.11-.32-.08-.68-.58-1.09-.9-.74-1.82-2.1-1.83-2.11h0s-.14-.15-.14-.15c-.16-.2-.49-.54-.96-.54-.05,0-.1,0-.15.01-.35.06-.66.31-.9.75-.3.42-1.07,1.46-1.77,2.03-.5.41-.69.77-.58,1.09.11.3.45.42.75.43-.01.13-.14.42-.37.79-.32,0-.63,0-.93,0-.05-.07-.1-.14-.15-.2-.1-.13-.2-.26-.31-.43-.19-.31-.51-.73-.68-.95.28-.02.52-.16.66-.39.22-.34.21-.93-.47-1.55-.35-.32-.64-.67-.86-.99.01,0,.03,0,.04-.01.01,0,.03,0,.04,0,.05,0,.1.01.16.04h.01s.02.02.03.02l.03.02c.21.15.36.4.39.45h0c.31.43.78,1.02,1.23,1.39.05.04.09.08.13.11h.57c-.07-.15-.21-.31-.4-.47-.13-.1-.26-.23-.38-.36.06-.08.13-.15.18-.22.75-.9.92-1.13.76-1.34-.05-.07-.13-.11-.22-.11-.05,0-.12.01-.18.04-.1.04-.2.06-.3.06-.17,0-.3-.06-.37-.18-.12-.19-.08-.54.39-.97.41-.37.83-.88,1.12-1.36.24-.38.49-.9.37-1.21-.06-.15-.19-.24-.36-.24-.23,0-.36-.08-.38-.13,0,0-.06-.18.44-.58.4-.33.85-.81,1.35-1.45h0c.31-.45.56-.81.65-.94l.04-.04c.13-.15.26-.24.4-.26.02,0,.05,0,.08,0,.09,0,.18.03.28.08h0s.03.02.05.04l.02.02h.01c.33.24.57.65.57.66h0c.43.6,1.07,1.41,1.7,1.92.1.08.17.15.23.21v.49s-.1.02-.17.02c-.17,0-.3.09-.36.24-.12.31.14.82.37,1.21.06.09.12.19.19.28l.03,2.55c0,.14.12.25.26.25h0c.14,0,.26-.12.25-.26l-.15-11.63h0c-.05-.51.11-.7.13-.73l.05-.03v-.04c2.87-5.16,7.23-12.96,7.51-13.32.03-.04.06-.07.08-.08,0,.01.01.03.02.04v.04s.04.04.04.04l.22.28s0,0,0,.01c-2.12,3.56-6.77,11.62-7.5,12.88-.12.12-.39.47-.31,1.21l.17,12.64c0,.14.12.25.26.25h0c.14,0,.26-.12.25-.26l-.17-12.66h0c-.06-.57.13-.78.16-.81l.05-.03.02-.04c3.24-5.63,8.18-14.13,8.49-14.51.06-.08.11-.11.13-.12.02.02.03.05.04.08v.04s.04.04.04.04l.24.29c-1.99,3.32-7.5,12.8-7.92,13.52-.15.15-.81.92-.73,2.55l.34,14.95c-.72,0-1.28,0-1.85,0Zm8.02-6.13c-1.37-.07-2.45-.11-2.88-.13-.04-3.35-.06-6.53-.02-6.86.08-.61.18-.67.65-.67h5.76c0,1.82-.01,6.27.11,7.44-.57.08-2.19.29-3.62.22Zm5.83.03l-1.04.05c-.2.02-.64,0-.72-.21-.11-.35-.13-4.7-.12-7.54h1.8c.04.55.19,2.57.19,3.96,0,.91-.05,2.44-.1,3.74Zm1.03,3.13h-.04s-.63-.24-.63-.84c0-.31.03-1.11.06-2.03.05-1.35.11-3.02.11-4,0-1.37-.14-3.36-.19-3.96h3.02l.06-.05s.02-.01.03-.02c.02.03.05.13.05.36l.17,12.93-2.64-2.41Zm5.35,3.49c-.64.02-1.48.02-1.86-.03-.2-.03-.33-.11-.38-.28-.05-.13-.03-.26-.03-.26h0s0-.03,0-.03l-.17-13.42c0-.15,0-.62-.3-.76-.14-.07-.3-.03-.41.03h-11.29c-.71,0-.97.25-1.07,1.05-.09.7.08,12.19.08,12.68,0,.33-.07.55-.2.64-.15.1-.37.02-.37.02h-.04s-.04-.01-.04-.01h-1.17c-.02-1.18-.25-13.4-.25-14.46s.3-1.49.3-1.49h0c.08-.15,8-13.78,8.34-14.28.01-.02.02-.03.03-.04.06.05.15.2.21.33l.02.03c2.83,4.97,8.24,14.52,8.51,15.12.17.38.11.76.01,1.43-.08.52-.17,1.16-.21,2.07-.08,2,.24,10.25.3,11.65Zm.65-14.76v14.75s-.08,0-.13,0c-.05-1.35-.38-9.67-.3-11.62.04-.88.13-1.51.2-2.01.11-.72.18-1.2-.05-1.72-.34-.77-8.09-14.38-8.52-15.15-.07-.16-.29-.61-.64-.65-.13-.01-.33.02-.5.28-.34.52-7.99,13.67-8.35,14.29-.05.08-.38.65-.38,1.77,0,1.02.21,12.44.25,14.3-.06,0-.12,0-.17,0l-.34-14.96c-.08-1.61.61-2.24.62-2.24l.03-.02.02-.03c.08-.14,7.89-13.57,8.58-14.59.39.18,1.43,2.21,2.2,3.7.8,1.55,1.63,3.15,2.36,4.2,1.83,2.62,3.66,6.14,4.46,7.8.65,1.37.68,1.8.68,1.89v.02Zm30.58,4.59c.5.41.44.58.44.58-.02.05-.15.13-.38.13-.17,0-.3.09-.36.24-.12.31.14.82.37,1.21.3.48.72.99,1.12,1.36.47.43.51.78.39.97-.07.11-.2.18-.37.18-.1,0-.2-.02-.3-.06-.07-.03-.13-.04-.18-.04-.09,0-.17.04-.22.11-.16.22.01.44.76,1.34.28.34.89,1.08,1.06,1.4-.14-.02-.26-.03-.37-.03-.33,0-.55.09-.66.27-.17.27-.06.64.37,1.25.07.11.1.17.11.2-.02,0-.06.01-.12.01-.14,0-.35-.03-.57-.08,0,0-.25-.09-.59-.17-.06-.01-.11-.03-.15-.04-.11-.03-.21-.06-.33-.06-.13,0-.27.03-.47.1h-.01s-.01.01-.01.01c-.07.05-.13.09-.19.12-.31.18-.45.35-.45.9,0,.58.19,6.06.21,6.69v.09s.02,0,.02,0c-.01.01-.02.02-.04.03-.41.33-1.63.16-2.09.09h-.06c-.71-.11-2.13-.17-3.75,0-1.69.17-14.39-.08-14.52-.09-1.77,0-2.36-.46-2.36-.47l-1.13-.92v-11.53c0-.12-.1-.22-.22-.22s-.22.1-.22.22v11.18l-4.44-3.61h-.01c-.37-.24-.45-.58-.47-.78h0v-15.06c.06-.25-.08-.78-.43-1.58v-29.39c0-.36,0-.53-.37-.61-.03,0-.06-.01-.1-.02.4-.34.82-.72,1.26-1.1.07.08.18.14.32.18.06.02.11.03.16.03,0,0,.02,0,.02,0,0,.05,0,.11,0,.18v36.83h.43v-36.83c0-.36,0-.53-.37-.61-.04,0-.08-.02-.14-.03-.07-.02-.1-.04-.11-.05.54-.49,1.09-.98,1.61-1.46.08.13.23.22.45.28.21.06.25.09.26.1,0,.01,0,.08,0,.13,0,.11,0,.26.02.45.05.33-.05,5.11-.13,8.96-.06,3.07-.13,5.96-.13,7.02,0,2.47-.09,30.78-.09,31.07h.43c0-.28.09-28.6.09-31.07,0-1.05.06-3.94.13-7.01.11-5.23.18-8.69.13-9.03-.02-.16-.02-.28-.02-.38.01-.36-.07-.52-.57-.66-.13-.04-.18-.07-.2-.09,0-.01.02-.03.02-.03l-.06-.06c.84-.78,1.58-1.47,2.06-1.92.01.08.04.15.08.22.13.21.37.29.56.31-.03.74-.05,3.08-.07,6.99-.03,4.9-.08,11-.17,14.65-.17,6.56-.09,9.45-.09,9.48h.43s-.08-2.93.09-9.47c.1-3.66.14-9.76.17-14.66.03-3.72.05-6.93.08-7.16l.06-.28-.28.02c-.1,0-.34-.01-.4-.12-.06-.1,0-.32.17-.59.67-1.09,7.27-8.36,7.33-8.43l-.06-.06c.69-.62,1.1-1,1.12-1.02h0c.35-.36.86.12.9.16l8.08,8.68c.07.1.6.91.39,1.61-.15.49-.12,1.6-.08,2.89.03,1.08.06,2.3-.02,3.18-.13,1.42-.16,13.28-.17,19.33-.18-.23-.32-.43-.42-.57-.24-.44-.54-.7-.9-.75-.05,0-.1-.01-.15-.01-.46,0-.8.34-.96.54l-.14.14h0s-.92,1.37-1.83,2.11c-.06,0-.11,0-.17,0-.25,0-.76,0-1.42.01-2.16.02-5.78.05-6.98,0h-.26c-1.63-.1-2.37-.12-2.63.13-.07.07-.11.15-.11.25v1.98c0,.5.08.83.09.85l.04.16h.17s1.66.03,3.5.04c-.34.43-.8.96-1.26,1.34-.5.41-.69.77-.58,1.09.11.3.45.42.76.43-.02.24-.52,1.21-1.39,2.01-.67.62-.68,1.2-.47,1.55.16.25.43.39.76.39.03,0,.05,0,.08,0-.14.18-.32.4-.49.6-.54.65-.89,1.09-1.06,1.41l-.04.07.06.05c.08.06.14.12.19.19l.08.1.06-.12c.17-.34.74-1.03,1.05-1.4.75-.9.92-1.13.76-1.34-.05-.07-.13-.11-.22-.11-.05,0-.12.01-.18.04-.1.04-.2.06-.3.06-.17,0-.3-.06-.37-.18-.12-.19-.08-.54.39-.97.41-.37.83-.88,1.12-1.36.24-.38.49-.9.37-1.21-.06-.15-.19-.24-.36-.24-.23,0-.36-.08-.38-.13,0,0-.06-.18.44-.58.62-.51,1.27-1.32,1.7-1.91h0s.24-.42.57-.65h.01s.02-.03.02-.03c.02-.01.03-.02.05-.03h0c.1-.06.19-.08.28-.08.03,0,.05,0,.08,0,.14.02.27.11.4.26l.04.04c.09.13.34.49.65.93h0c.5.65.95,1.13,1.35,1.46.5.41.44.58.44.58-.02.05-.15.13-.38.13-.17,0-.3.09-.36.24-.12.31.14.82.37,1.21.3.48.72.99,1.12,1.36.47.43.51.78.39.97-.07.11-.2.18-.37.18-.1,0-.2-.02-.3-.06-.07-.03-.13-.04-.18-.04-.09,0-.17.04-.22.11-.16.22.01.44.76,1.34.03.03.06.07.09.11-.18.37-.13.7,0,.93.16.25.43.39.76.39.03,0,.05,0,.08,0-.14.18-.32.4-.49.6-.39.47-.67.82-.87,1.1-.09-.16-.15-.3-.18-.38.28-.03.48-.16.56-.37.1-.27-.06-.57-.46-.9-.53-.43-1.11-1.22-1.34-1.54-.19-.35-.44-.56-.73-.6-.04,0-.08,0-.12,0-.38,0-.65.27-.78.44l-.11.11h0s-.7,1.04-1.39,1.61c-.4.33-.56.63-.46.9.07.2.28.34.56.37-.08.23-.41.87-1.03,1.43-.39.36-.5.71-.47.98-.08-.05-.16-.09-.25-.1-.03,0-.06,0-.09,0-.28,0-.48.2-.57.32l-.08.07h0s-.48.72-.96,1.11c-.29.24-.41.47-.33.67.05.14.19.24.37.27-.07.18-.3.58-.68.93-.39.36-.39.71-.26.92.08.12.2.2.35.23-.05.06-.11.13-.16.19-.55.66-.74.93-.62,1.15.03.05.1.13.25.13.02,0,.04,0,.07,0,.08-.01.14-.02.19-.02.02,0,.04,0,.05,0-.02.05-.06.14-.17.29-.14.2-.16.36-.06.49.07.09.18.14.35.14h0c.2,0,.44-.07.61-.12l.12-.04-.13-.39-.12.04c-.19.06-.33.09-.41.1.17-.24.31-.52.18-.73-.08-.12-.21-.18-.42-.18-.01,0-.02,0-.04,0,.13-.19.36-.46.46-.59.41-.49.53-.64.41-.81-.04-.06-.11-.09-.18-.09-.04,0-.08,0-.13.03-.04.02-.09.03-.13.03s-.1,0-.13-.06c-.05-.07,0-.23.19-.41.34-.31.96-1.09.81-1.45-.04-.11-.15-.18-.27-.18-.05,0-.09,0-.11-.02.02-.03.06-.1.2-.21.36-.29.73-.77.91-1.03h0s.13-.22.28-.33h.02s.01-.02.02-.03c.04-.02.08-.03.11-.03,0,0,.02,0,.03,0,.05,0,.11.04.16.11l.02.02c.04.06.18.26.34.49.27.35.52.61.73.79.13.11.18.18.2.21-.02,0-.06.02-.11.02-.12,0-.23.07-.27.18-.14.36.47,1.14.81,1.45.2.18.24.33.19.41-.03.05-.08.06-.13.06s-.08,0-.13-.03c-.05-.02-.09-.03-.13-.03-.07,0-.14.03-.18.09-.13.17,0,.32.41.81.04.05.08.1.13.16l.08.1.1-.08s.08-.06.11-.09l.11-.08-.06-.07s-.11-.14-.16-.2c-.05-.06-.11-.13-.16-.19.15-.03.27-.11.35-.23.13-.21.13-.56-.26-.92-.38-.35-.61-.75-.68-.93.18-.03.32-.13.37-.27.07-.2-.04-.43-.33-.67-.1-.08-.21-.18-.32-.31.44-.54.57-.73.43-.92-.05-.07-.13-.11-.22-.11-.05,0-.1.01-.16.04-.07.03-.14.04-.2.04-.1,0-.19-.04-.23-.11-.07-.12-.04-.36.29-.66.6-.55,1.33-1.59,1.16-2.03-.05-.14-.18-.22-.33-.22-.14,0-.21-.04-.23-.06,0-.03.03-.14.31-.38.51-.42,1.04-1.1,1.31-1.47h0c.03-.06.2-.33.42-.49l.03-.02s.02-.01.03-.02h0c.06-.04.12-.06.18-.06.02,0,.03,0,.05,0,.09.01.18.07.27.18l.03.03c.06.09.25.37.5.71h0c.39.5.74.87,1.04,1.13.28.23.31.35.31.38-.02.02-.09.06-.23.06-.15,0-.28.08-.33.22-.17.44.56,1.48,1.16,2.03.33.3.36.54.29.66-.04.07-.12.11-.23.11-.06,0-.13-.01-.2-.04-.06-.02-.11-.04-.16-.04-.09,0-.17.04-.22.11-.15.21.02.42.58,1.1.06.07.12.14.19.23l.05.06c-.1.12-.22.24-.35.35-.41.37-.52.73-.48,1.01-.08-.06-.17-.09-.26-.11-.03,0-.06,0-.09,0-.29,0-.49.2-.58.32l-.08.08h0s-.5.74-.98,1.14c-.3.25-.42.48-.34.69.05.15.19.25.38.28-.07.19-.31.6-.7.96-.4.37-.4.73-.27.95.08.13.21.21.36.24-.06.07-.11.14-.17.2-.56.68-.76.96-.64,1.18.03.05.1.14.25.14.02,0,.05,0,.07,0,.08-.01.14-.02.2-.02.02,0,.04,0,.05,0-.02.05-.06.14-.17.3-.14.2-.16.37-.06.5.07.09.19.14.35.14h0c.2,0,.45-.07.62-.13l.12-.04-.13-.39-.12.04c-.2.07-.34.09-.43.1.17-.25.33-.53.19-.75-.08-.12-.22-.18-.43-.18-.01,0-.03,0-.04,0,.13-.2.37-.48.48-.61.42-.51.55-.66.42-.83-.04-.06-.11-.09-.18-.09-.04,0-.08,0-.13.03-.05.02-.09.03-.13.03-.04,0-.1,0-.13-.06-.05-.08,0-.23.2-.42.35-.32.98-1.12.84-1.49-.04-.11-.15-.18-.27-.18-.05,0-.1,0-.12-.02.02-.03.06-.11.2-.22.37-.3.74-.79.94-1.05h0s.14-.23.29-.34h.02s.01-.02.02-.03c.04-.02.08-.03.12-.03,0,0,.02,0,.03,0,.06,0,.11.05.17.11l.02.02c.05.07.18.26.35.5.28.36.53.63.75.81.14.12.19.19.2.22-.02,0-.06.02-.12.02-.13,0-.23.07-.27.18-.14.37.48,1.17.84,1.49.2.19.25.34.2.42-.03.05-.09.06-.13.06s-.09,0-.13-.03c-.05-.02-.09-.03-.13-.03-.08,0-.14.03-.18.09-.13.18,0,.33.42.83.04.05.08.1.13.16l.08.1.1-.08s.08-.06.12-.09l.11-.08s-.17-.21-.22-.27c-.05-.07-.11-.14-.17-.2.15-.03.28-.11.36-.24.13-.21.14-.58-.27-.95-.4-.36-.63-.78-.7-.96.19-.03.33-.13.38-.28.07-.21-.04-.44-.34-.69-.1-.08-.21-.19-.33-.32.47-.57.59-.75.45-.95-.05-.07-.13-.11-.22-.11-.05,0-.11.01-.17.04-.07.03-.14.04-.21.04-.11,0-.19-.04-.24-.11-.08-.12-.04-.37.3-.68.62-.56,1.37-1.63,1.19-2.08-.05-.14-.19-.23-.34-.23-.14,0-.22-.04-.24-.06,0-.03.03-.15.32-.39.52-.43,1.07-1.13,1.34-1.51h0c.03-.06.2-.34.43-.5l.03-.02s.02-.01.03-.02h0c.06-.04.13-.06.19-.06.02,0,.03,0,.05,0,.1.02.19.08.27.18l.03.03c.08.11.27.39.51.73h0c.4.51.76.9,1.07,1.16.3.24.32.36.32.39-.02.02-.1.06-.24.06-.16,0-.29.09-.34.23-.18.45.57,1.52,1.19,2.08.34.31.37.56.29.68-.04.07-.13.11-.24.11-.07,0-.14-.01-.21-.04-.06-.02-.12-.04-.17-.04-.09,0-.17.04-.22.11-.16.22.02.43.6,1.13.05.06.1.12.16.19-.36.49-.48.78-.36.99.04.06.13.17.33.17.03,0,.07,0,.11,0,.15-.02.28-.04.39-.04.22,0,.26.05.26.05,0,0,.07.14-.36.75-.08.11-.32.46-.12.74.1.13.27.19.53.19.35,0,.79-.12,1.1-.22l.08-.03-.14-.43-.08.03c-.55.18-.87.2-.98.2-.06,0-.1,0-.12-.01,0-.03.04-.1.11-.2.43-.61.54-.98.37-1.25-.11-.18-.33-.27-.66-.27-.11,0-.23,0-.37.03.16-.32.78-1.06,1.06-1.4.75-.9.92-1.13.76-1.34-.05-.07-.13-.11-.22-.11-.05,0-.12.01-.18.04-.1.04-.2.06-.3.06-.17,0-.3-.06-.37-.18-.12-.19-.08-.54.39-.97.41-.37.83-.88,1.12-1.36.24-.38.49-.9.37-1.21-.06-.15-.19-.24-.36-.24-.23,0-.36-.08-.38-.13,0,0-.06-.18.44-.58.62-.51,1.27-1.32,1.7-1.91h0s.24-.42.57-.65l.04-.03s.03-.02.05-.03h0c.1-.06.19-.08.28-.08.03,0,.05,0,.08,0,.14.02.27.11.4.26l.04.04c.09.13.34.49.65.93h0c.5.65.95,1.13,1.35,1.46Zm-19.76,2.92s-.06.07-.09.11c-.04-.05-.08-.11-.12-.16.07.02.14.04.21.05Zm5.74,2.88c.07.03.15.04.23.05-.03.04-.07.08-.1.12-.05-.06-.09-.12-.13-.17Zm13.02-12.11s-.09.05-.21.05c-.15,0-.27.08-.32.21-.18.47.63,1.5,1.09,1.91.3.28.33.5.27.61-.04.06-.11.1-.21.1-.06,0-.12-.01-.19-.04-.06-.02-.11-.03-.16-.03-.09,0-.16.04-.21.1-.15.2.01.4.55,1.05.05.06.11.14.18.21l.08.1.03-.03c.09.09.19.18.28.25.08.07.07.1.06.12-.04.1-.23.2-.41.2-.03,0-.05,0-.07,0-.06-.01-.12-.02-.17-.02-.15,0-.26.04-.33.09-.32-.38-.58-.75-.73-.96-.24-.44-.54-.7-.9-.75-.05,0-.1-.01-.15-.01-.46,0-.8.34-.96.54l-.14.14h0s-.68,1.02-1.45,1.77c-.03-.04-.06-.08-.1-.12-.17-.2-.35-.42-.49-.6.03,0,.05,0,.08,0,.32,0,.6-.14.76-.39.22-.34.21-.93-.47-1.55-.23-.21-.43-.43-.6-.64.04-.05.08-.09.13-.14.46-.42,1.27-1.44,1.09-1.91-.05-.13-.17-.21-.32-.21-.12,0-.19-.03-.21-.05,0-.03.04-.14.29-.34.45-.37.92-.96,1.23-1.38h0c.03-.06.18-.31.39-.45l.03-.02s.02-.01.03-.02h0c.06-.04.11-.05.16-.05.01,0,.03,0,.04,0,.09.01.17.07.24.16l.03.03c.06.09.24.35.47.66h0c.36.47.69.82.98,1.06.25.21.29.31.29.34Zm6.74-45.37c-1.4,1.03-6.04,3.87-7.23,4.59l-.17-13.34c.03-.1.04-.18.06-.24.08.05.18.12.29.19.4.27,1.08.73,2.26,1.41,2.79,1.61,6.88,4.58,7.97,5.38-.59.32-1.93,1.09-3.17,2.01Zm4.04-2.87c-.04.24-.29.49-.47.62-.79-.58-5.2-3.8-8.16-5.52-1.17-.68-1.83-1.13-2.23-1.4-.43-.29-.56-.38-.74-.31-.15.06-.18.21-.21.36-.01.07-.03.16-.06.27v.03s.22,17.63.22,17.63h.05s.58,35.64.58,35.64c-.42-.41-.84-.97-1.02-1.23-.15-.27-.33-.45-.54-.53,0-.3,0-.67-.01-1.08-.06-4.07-.19-13.59.02-18.46.25-5.73.02-31.46,0-33.68.81-.24,1.88.53,1.89.54h.01c4,2.46,10.11,6.28,10.54,6.77.1.11.14.23.12.35Z"/>
  <path class="uuid-2c5f485e-7657-4473-9f0a-05d83862edbd" d="m115.25,61.43c.78.57,1.64.88,2.38.88.17,0,.33-.02.49-.05.17-.03,3.79-.73,3.87-3.91.03-1.22-.36-2.29-1.15-3.09-1.03-1.06-2.46-1.43-3.37-1.43-1.04,0-2.31.64-3.16,1.59-.54.6-1.15,1.58-1.01,2.86.13,1.19.84,2.34,1.95,3.15Zm2.06-3.7c.15,0,.29,0,.43-.01,0,.14,0,.28.01.43-.14,0-.28,0-.43.01,0-.15,0-.29-.01-.43Zm2.48,3.44c-.62.37-1.25.55-1.56.63-.03-.57-.09-2.03-.13-3.31.26,0,.5,0,.71,0,1.27,0,2.33.09,2.73.13-.11,1.08-.69,1.94-1.75,2.56Zm1.77-2.9c-.42-.04-1.48-.13-2.75-.13-.21,0-.45,0-.72,0,0-.15,0-.29-.01-.43.27,0,.52,0,.73,0,1.28,0,2.34.09,2.73.13.01.14.02.28.01.43Zm-3.35-3.93c.75.15,1.63.52,2.32,1.22.52.54.84,1.18.97,1.92-.45-.04-1.48-.13-2.69-.13-.21,0-.46,0-.73,0,0-.14,0-.27,0-.4,0-1.27.1-2.32.14-2.63Zm-.75,7.53c-.02-.5-.09-2.03-.13-3.37.15,0,.29,0,.43-.01.04,1.32.11,2.84.13,3.37-.14.02-.28.02-.43,0Zm-.02-7.61s.02,0,.03,0c.12,0,.26,0,.4.02-.03.31-.14,1.38-.14,2.69,0,.12,0,.26,0,.4-.14,0-.28,0-.43.01,0-.15,0-.29,0-.41,0-1.41.13-2.54.15-2.71Zm-1.95,6.82c-.89-.64-1.49-1.52-1.7-2.45.62-.03,1.96-.08,3.19-.12.04,1.29.11,2.75.13,3.31-.53-.1-1.1-.36-1.62-.74Zm-.87-5.37c.66-.74,1.63-1.29,2.47-1.42-.03.32-.14,1.38-.14,2.68,0,.13,0,.27,0,.42-1.25.04-2.61.1-3.22.12.11-.78.52-1.39.89-1.81Zm2.33,2.03c0,.14,0,.28.01.43-1.26.04-2.64.1-3.24.12,0-.02,0-.03,0-.05-.01-.13-.02-.25-.02-.38.58-.03,1.97-.08,3.25-.12Z"/>
  <path class="uuid-2c5f485e-7657-4473-9f0a-05d83862edbd" d="m118.61,71.91c-1.18-.2-2.48.17-3.56,1.02-.93.73-1.52,1.68-1.57,2.54,0,.02,0,.07,0,.14,0,0,0,0,0,0l-.04.34s.01,0,.04,0c0,.13,0,.27.02.43,0,0-.02,0-.02,0l-.04.34s.03,0,.09.01c.16,1.2.74,2.91,2.67,3.52.47.14.93.22,1.38.22.67,0,1.32-.16,1.91-.48,1.29-.7,2.04-1.98,2.29-2.86.28-1,0-2.39-.68-3.47-.43-.68-1.21-1.53-2.48-1.75Zm-.74,4.6c-.15,0-.29,0-.43.01,0-.14,0-.28-.01-.43.14,0,.28,0,.43-.01,0,.15,0,.29.01.43Zm-3.96-1h0c.05-.74.59-1.59,1.41-2.24.5-.4,1.06-.68,1.62-.84.03.56.09,2.04.13,3.33-.26,0-.5,0-.71,0-1.05,0-1.96-.06-2.47-.11,0-.09,0-.14.01-.15Zm-.02.49c.52.04,1.43.11,2.47.11.21,0,.45,0,.72,0,0,.15,0,.29.01.43-.27,0-.52,0-.73,0-1.04,0-1.94-.06-2.45-.11-.01-.16-.02-.3-.02-.43Zm3.06,3.99c-.21-.03-.42-.08-.64-.15-1.15-.36-1.9-1.19-2.24-2.46-.05-.21-.09-.41-.12-.6.53.04,1.41.1,2.41.1.21,0,.46,0,.73,0,0,.14,0,.27,0,.4,0,1.46-.14,2.63-.15,2.73Zm.76-7.7c.02.41.1,2.03.14,3.44-.15,0-.29,0-.43.01-.04-1.35-.11-2.9-.14-3.4.14-.03.29-.04.43-.05Zm-.41,7.74c.01-.11.15-1.29.15-2.77,0-.12,0-.26,0-.4.14,0,.28,0,.43-.01,0,.15,0,.29,0,.41,0,1.52-.15,2.72-.15,2.73l.2.03c-.21.02-.42.02-.64,0Zm4.06-3.02c-.22.8-.9,1.96-2.08,2.6-.38.21-.78.34-1.2.4.02-.21.15-1.34.15-2.74,0-.13,0-.27,0-.42,1.24-.04,2.58-.09,3.19-.12-.01.1-.03.2-.06.29Zm.09-.64c-.59.03-1.97.08-3.23.12,0-.14,0-.28-.01-.43,1.25-.04,2.61-.1,3.23-.12.01.15.02.29.01.43Zm-3.25-.65c-.04-1.4-.12-3.02-.14-3.44.16,0,.32.02.48.05,1.12.19,1.81.95,2.19,1.55.33.52.55,1.13.66,1.72-.62.03-1.96.08-3.19.12Z"/>
  <path class="uuid-2c5f485e-7657-4473-9f0a-05d83862edbd" d="m110.51,69.71h.17s2.14.04,4.26.04c1.07,0,2.15,0,2.96-.04,1.97-.06,4.57-.03,5.81,0,.3,0,.51,0,.61,0,.28,0,.42-.11.5-.2.13-.16.12-.35.11-.42l.08-2.53-.07-.07c-.22-.22-.83-.22-2.19-.17-.36.01-.69.02-.98.02-.25,0-.76,0-1.42.01-2.16.02-5.78.05-6.98,0h-.26c-1.63-.1-2.37-.12-2.63.13-.07.07-.11.15-.11.25v1.98c0,.5.08.83.09.85l.04.16Zm.3-2.94c.24-.11,1.33-.06,2.29,0h.26c1.22.07,4.84.04,7.01.02.65,0,1.17-.01,1.41-.01.29,0,.63-.01.99-.03.58-.02,1.5-.05,1.8.02l-.08,2.35v.02s0,.07-.02.1c-.02.03-.08.04-.17.04-.09,0-.3,0-.6,0-.73-.01-1.92-.03-3.17-.03-.9,0-1.83,0-2.66.04-2.16.07-6.15.02-7.03,0-.02-.13-.04-.33-.04-.58v-1.93Z"/>
  <path class="uuid-2c5f485e-7657-4473-9f0a-05d83862edbd" d="m119.21,47.97c.23,0,.42-.19.42-.42s-.19-.42-.42-.42-.42.19-.42.42.19.42.42.42Z"/>
  <path class="uuid-2c5f485e-7657-4473-9f0a-05d83862edbd" d="m119.32,50.97c0-.12-.03-.24-.09-.34-.04-.08-.1-.14-.17-.19-.02-.01-.03-.02-.05-.03h0,0s-.01,0-.02,0l-.24-.14-.99-.57h0s0,0,0,0l-1.55,2.68-.07.12s-.02.03-.03.04h0s0,0,0,0c0,0,0,0,0,.01h0s0,0,0,0c-.02.04-.03.09-.03.14,0,.19.14.34.32.34.11,0,.2-.05.26-.14l.09-.15.41-.71,1.69-.45s.04,0,.06-.02h.02s0,0,0,0c.23-.09.4-.32.4-.6Zm-1.17.14l-.54.14.39-.67.2.11.47.27-.51.14Z"/>
  <path class="uuid-2c5f485e-7657-4473-9f0a-05d83862edbd" d="m116.24,50.16l.05.15.15-.02h.04s.71-.13.71-.13l-.3-.18.58-1.01.82-.17h0c.13-.04.23-.16.23-.32,0-.18-.14-.33-.3-.33-.03,0-.05,0-.08.01l-1.09.23h0s-.72,1.25-.72,1.25l-.33-.2.24.67v.04Z"/>
  <polygon class="uuid-2c5f485e-7657-4473-9f0a-05d83862edbd" points="115.96 49.47 115.5 50.25 116.19 50.13 115.96 49.47"/>
  <polygon class="uuid-2c5f485e-7657-4473-9f0a-05d83862edbd" points="116.73 50.98 117.19 50.19 116.49 50.31 116.73 50.98"/>
  <polygon class="uuid-2c5f485e-7657-4473-9f0a-05d83862edbd" points="116.45 50.32 116.31 50.34 116.27 50.35 116.26 50.31 116.21 50.17 115.5 50.28 116.69 50.98 116.45 50.32"/>
  <path class="uuid-2c5f485e-7657-4473-9f0a-05d83862edbd" d="m120.08,49.45s0,0,0,0h0s0,0,0,0c0,0,0,0,0,0l.35-.79.08-.18s0,0,0,0c0-.03.01-.06.01-.09,0-.17-.14-.31-.31-.31-.11,0-.21.06-.27.16,0,.02-.02.03-.02.05h0s-.03.07-.03.07l-.22.5s0,0,0,0h-.66s0,0,0,0l-.33.59s0,0,0,0h1.39Z"/>
  <path class="uuid-2c5f485e-7657-4473-9f0a-05d83862edbd" d="m94.52,80.79c.2,0,.36-.16.36-.36s-.16-.36-.36-.36-.36.16-.36.36.16.36.36.36Z"/>
  <path class="uuid-2c5f485e-7657-4473-9f0a-05d83862edbd" d="m94.39,82.92s-.03-.02-.04-.03h0s0,0-.01,0l-.21-.12-.85-.49h0s0,0,0,0l-1.34,2.32-.06.11s-.02.02-.02.04h0s0,0,0,.01h0s0,0,0,0c-.02.04-.03.08-.03.12,0,.16.12.3.28.3.09,0,.17-.05.22-.12l.08-.13.35-.61,1.46-.39s.03,0,.05-.01h.02s0,0,0,0c.2-.07.35-.28.35-.52,0-.11-.03-.21-.08-.29-.04-.07-.09-.12-.15-.17Zm-.78.57l-.46.12.33-.58.17.1.41.23-.44.12Z"/>
  <path class="uuid-2c5f485e-7657-4473-9f0a-05d83862edbd" d="m91.96,82.68l.04.13.13-.02h.03s.61-.11.61-.11l-.26-.15.5-.87.71-.15h0c.12-.03.2-.14.2-.27,0-.16-.12-.28-.26-.28-.02,0-.04,0-.07,0l-.94.2h0s-.63,1.08-.63,1.08l-.29-.17.21.58v.03Z"/>
  <polygon class="uuid-2c5f485e-7657-4473-9f0a-05d83862edbd" points="91.71 82.08 91.32 82.75 91.92 82.65 91.71 82.08"/>
  <polygon class="uuid-2c5f485e-7657-4473-9f0a-05d83862edbd" points="92.38 83.38 92.78 82.71 92.18 82.81 92.38 83.38"/>
  <polygon class="uuid-2c5f485e-7657-4473-9f0a-05d83862edbd" points="92.14 82.81 92.02 82.84 91.98 82.84 91.97 82.81 91.93 82.68 91.32 82.79 92.35 83.39 92.14 82.81"/>
  <path class="uuid-2c5f485e-7657-4473-9f0a-05d83862edbd" d="m95.4,80.89c-.1,0-.18.05-.23.13,0,.01-.01.03-.02.04h0s-.03.06-.03.06l-.19.43s0,0,0,0h-.57s0,0,0,0l-.28.51s0,0,0,0h1.2s0,0,0,0h0s0,0,0,0c0,0,0,0,0,0l.3-.68.07-.15s0,0,0,0c0-.02.01-.05.01-.08,0-.15-.12-.26-.26-.26Z"/>
  <g>
    <path class="uuid-2c5f485e-7657-4473-9f0a-05d83862edbd" d="m64.99,68.12h.82c.33,0,.59-.09.78-.28.12-.12.23-.27.32-.47.05-.09.09-.17.13-.24h-.66s.01.02.01.03h0c0,.06-.05.15-.15.29-.05.09-.21.14-.48.14h-.49l.25-.46h-.59l-.86,1.52h.6s.13-.21.31-.54Z"/>
    <path class="uuid-2c5f485e-7657-4473-9f0a-05d83862edbd" d="m65.3,66.52l-.26.46h2.08c.03-.07.04-.12.04-.16,0-.05-.01-.09-.03-.11-.07-.13-.2-.19-.35-.19h-1.48s0,0,0,0Z"/>
    <polygon class="uuid-2c5f485e-7657-4473-9f0a-05d83862edbd" points="67.27 68.66 68.14 67.14 67.53 67.14 66.67 68.67 67.27 68.67 67.27 68.66"/>
    <polygon class="uuid-2c5f485e-7657-4473-9f0a-05d83862edbd" points="68.48 66.54 67.87 66.54 67.62 66.98 68.23 66.98 68.48 66.54"/>
    <polygon class="uuid-2c5f485e-7657-4473-9f0a-05d83862edbd" points="70.95 68.66 71.81 67.14 71.21 67.14 70.35 68.67 70.94 68.67 70.95 68.66"/>
    <polygon class="uuid-2c5f485e-7657-4473-9f0a-05d83862edbd" points="72.15 66.54 71.54 66.54 71.3 66.98 71.9 66.98 72.15 66.54"/>
    <polygon class="uuid-2c5f485e-7657-4473-9f0a-05d83862edbd" points="74.49 68.66 75.36 67.14 74.75 67.14 73.89 68.67 74.49 68.67 74.49 68.66"/>
    <polygon class="uuid-2c5f485e-7657-4473-9f0a-05d83862edbd" points="75.69 66.54 75.08 66.54 74.84 66.98 75.45 66.98 75.69 66.54"/>
    <path class="uuid-2c5f485e-7657-4473-9f0a-05d83862edbd" d="m69.33,68.66c.1,0,.17-.02.23-.04.23-.07.41-.2.54-.38l.51-.91c.04-.07.07-.13.1-.18h-.65s0,.01,0,.02c0,.05-.09.22-.26.53-.17.3-.32.43-.53.43h-.62s.55-.98.55-.98h-.61l-.85,1.52h1.58Z"/>
    <path class="uuid-2c5f485e-7657-4473-9f0a-05d83862edbd" d="m70.85,66.82s0-.08-.03-.12c-.07-.13-.22-.19-.44-.19h-1.42s-.26.46-.26.46h2.1c.03-.07.04-.12.04-.16Z"/>
    <path class="uuid-2c5f485e-7657-4473-9f0a-05d83862edbd" d="m73.14,68.6c.21-.06.39-.21.54-.42.17-.27.26-.45.26-.52v-.1c-.06-.11-.19-.16-.39-.16h-.89s.06-.15.2-.25h-.69c-.13.2-.22.4-.17.52.04.1.19.16.49.16h.79s-.06.13-.17.21c-.1.07-.19.09-.27.09h-1.06s-.09,0-.16,0l-.31.55h1.54c.08,0,.17-.03.28-.06Z"/>
    <path class="uuid-2c5f485e-7657-4473-9f0a-05d83862edbd" d="m74.62,66.52h-1.44c-.37,0-.66.14-.86.41-.01.02-.02.03-.03.05h2.08l.25-.46Z"/>
    <path class="uuid-2c5f485e-7657-4473-9f0a-05d83862edbd" d="m79.33,66.81s0-.06-.01-.08c-.03-.13-.19-.19-.48-.19h-2.67l-.25.44h3.36c.03-.07.05-.13.04-.17Z"/>
    <path class="uuid-2c5f485e-7657-4473-9f0a-05d83862edbd" d="m79.2,67.14h-.63s0,.01,0,.02v.03c-.03.07-.33.57-.83,1.47h.6l.86-1.52Z"/>
    <polygon class="uuid-2c5f485e-7657-4473-9f0a-05d83862edbd" points="76.44 67.14 75.84 67.14 74.98 68.67 75.57 68.67 76.44 67.14"/>
    <polygon class="uuid-2c5f485e-7657-4473-9f0a-05d83862edbd" points="77.84 67.14 77.24 67.14 76.38 68.67 76.97 68.67 77.84 67.14"/>
    <path class="uuid-2c5f485e-7657-4473-9f0a-05d83862edbd" d="m81.14,67.17v.02c0,.06-.08.24-.22.49-.13.27-.33.44-.54.44h-.4c-.11,0-.16-.04-.16-.11h0c0-.07.13-.28.23-.46.07-.12.23-.33.35-.41h-.7c-.08.14-.2.34-.34.6-.2.32-.3.53-.3.64,0,.03,0,.06.02.1.05.1.15.16.3.17h.96c.18,0,.31-.03.41-.08.13-.05.26-.15.41-.31.06-.08.23-.38.51-.89.05-.09.1-.17.13-.24h-.66s0,.02,0,.03Z"/>
    <path class="uuid-2c5f485e-7657-4473-9f0a-05d83862edbd" d="m81.9,66.76c-.05-.16-.18-.24-.4-.24h-.88c-.29,0-.56.14-.8.41,0,.01-.02.03-.03.04h2.08c.03-.07.04-.13.04-.17v-.05Z"/>
    <path class="uuid-2c5f485e-7657-4473-9f0a-05d83862edbd" d="m62.11,68.66c.18-.34.28-.51.3-.53h.9l-.29.53h.58s.26-.45.73-1.3c.05-.08.09-.16.13-.22h-.64s0,.02,0,.03v.03s-.08.17-.23.41h-.9s.2-.43.34-.46h-.68l-.6,1.06c-.08.14-.16.29-.26.46h0s.6,0,.6,0h0Z"/>
    <path class="uuid-2c5f485e-7657-4473-9f0a-05d83862edbd" d="m64.58,66.83s0-.07-.01-.1c-.04-.15-.21-.21-.44-.21h-.91c-.13.02-.26.06-.38.12-.1.04-.22.15-.39.33,0,0,0,0,0,0h2.09c.03-.06.04-.1.04-.15Z"/>
    <path class="uuid-2c5f485e-7657-4473-9f0a-05d83862edbd" d="m59.76,68.1h.93l-.31.56h.63l.31-.54s0,0,0-.01c.05-.1.05-.1.05-.15,0-.09-.5-.12-.59-.12v-.03s.51,0,.61-.03c.1-.03.18-.12.26-.25l.21-.38h-.65s-.03.09-.09.18c-.07.12-.2.2-.46.21-.02,0-.04,0-.07,0h-.53s.07-.15.21-.39c.01-.02.02-.04.03-.06h-.62l-.89,1.57h.62l.32-.56Z"/>
    <path class="uuid-2c5f485e-7657-4473-9f0a-05d83862edbd" d="m61.97,66.98h0c.04-.11.07-.18.07-.23v-.05c-.02-.06-.05-.11-.1-.15-.08-.08-.21-.12-.4-.12h-1.47l-.31.54h2.2Z"/>
    <polygon class="uuid-2c5f485e-7657-4473-9f0a-05d83862edbd" points="61.97 66.98 61.97 66.98 61.97 66.98 61.97 66.98"/>
    <path class="uuid-2c5f485e-7657-4473-9f0a-05d83862edbd" d="m61.4,66.13h.31s.44-.78.44-.78h-.33s0,.03-.01.05l-.41.73Z"/>
    <path class="uuid-2c5f485e-7657-4473-9f0a-05d83862edbd" d="m63.11,65.26l.13-.23h-.76s-.13.23-.13.23c.11,0,.24,0,.35,0,.22,0,.41,0,.41,0Z"/>
    <path class="uuid-2c5f485e-7657-4473-9f0a-05d83862edbd" d="m63.91,66.13l.16-.27h-.79s.08-.16.08-.16h.44l.13-.22h-.43s.06-.1.07-.13h-.31c-.1.18-.25.45-.44.78h1.09Z"/>
    <path class="uuid-2c5f485e-7657-4473-9f0a-05d83862edbd" d="m64.41,66.13l.16-.28h.46l-.16.28h.31s.15-.28.15-.28c0,0,0,0,0,0,.02-.05.03-.05.02-.07,0-.04-.25-.06-.29-.06h0s.25-.01.3-.03c.05-.01.09-.06.13-.12l.11-.22h-.32s-.03.07-.05.12c-.04.06-.1.1-.23.1-.01,0-.02,0-.03,0h-.26s.04-.07.11-.19c0,0,.01-.02.02-.03h-.31l-.44.78h.31Z"/>
    <path class="uuid-2c5f485e-7657-4473-9f0a-05d83862edbd" d="m65.68,65.2v-.02s-.03-.05-.05-.07c-.04-.04-.11-.06-.2-.06h-.73l-.12.22h1.08s.02-.05.02-.07Z"/>
    <polygon class="uuid-2c5f485e-7657-4473-9f0a-05d83862edbd" points="60.56 66.13 61.01 65.35 60.7 65.35 60.25 66.13 60.56 66.13 60.56 66.13"/>
    <polygon class="uuid-2c5f485e-7657-4473-9f0a-05d83862edbd" points="61.18 65.04 60.87 65.04 60.74 65.27 61.05 65.27 61.18 65.04"/>
    <path class="uuid-2c5f485e-7657-4473-9f0a-05d83862edbd" d="m62.17,65.27h0s.03-.08.03-.1v-.02s-.02-.05-.04-.06c-.03-.03-.09-.05-.17-.05h-.62l-.13.23h.93Z"/>
    <polygon class="uuid-2c5f485e-7657-4473-9f0a-05d83862edbd" points="62.53 65.35 62.09 66.13 62.4 66.13 62.4 66.13 62.84 65.35 62.53 65.35"/>
    <polygon class="uuid-2c5f485e-7657-4473-9f0a-05d83862edbd" points="61.07 66.13 61.07 66.13 61.52 65.35 61.21 65.35 60.76 66.13 61.07 66.13"/>
    <path class="uuid-2c5f485e-7657-4473-9f0a-05d83862edbd" d="m64.53,65.04h-1.1s-.05.08-.13.23h1.1l.13-.23Z"/>
    <g>
      <path class="uuid-2c5f485e-7657-4473-9f0a-05d83862edbd" d="m85.79,65.1c.22.03.42-.13.45-.36.03-.23-.13-.43-.35-.46-.22-.03-.42.13-.45.36-.03.23.13.43.35.46Z"/>
      <polygon class="uuid-2c5f485e-7657-4473-9f0a-05d83862edbd" points="86.93 65.52 86.92 65.46 86.91 65.41 86.87 65.37 86.84 65.33 86.8 65.29 86.75 65.27 86.7 65.25 86.65 65.24 86.6 65.23 86.55 65.24 86.5 65.25 86.46 65.28 86.42 65.31 86.06 65.92 85.46 65.99 85.08 66.66 86.47 66.55 86.89 65.7 86.92 65.64 86.93 65.58 86.93 65.52"/>
      <path class="uuid-2c5f485e-7657-4473-9f0a-05d83862edbd" d="m85.53,68l-.03-.08-.04-.08-.05-.08-1.22-1.07-1.7,2.94-.03.05v.05s-.01.05-.01.05l.02.05.02.04.03.04.05.04.05.03.06.03.06.02h.06s.06.01.06.01h.06s.05-.03.05-.03l.05-.03.03-.04.57-.93,1.41-.22.08-.02.07-.03.07-.04.06-.05.06-.06.05-.06.04-.07.03-.07.03-.08.02-.08v-.08s0-.08,0-.08v-.08Zm-1.55.39l.03-.06.35-.58.03-.06.54.52-.96.17Z"/>
      <polygon class="uuid-2c5f485e-7657-4473-9f0a-05d83862edbd" points="82.46 66.55 82.03 67.33 82.72 67.16 82.46 66.55"/>
      <polygon class="uuid-2c5f485e-7657-4473-9f0a-05d83862edbd" points="83.61 67.27 82.99 67.33 83.18 68 83.61 67.27"/>
      <polygon class="uuid-2c5f485e-7657-4473-9f0a-05d83862edbd" points="82.95 67.34 82.8 67.35 82.74 67.21 82.03 67.38 83.15 68.04 82.95 67.34"/>
      <path class="uuid-2c5f485e-7657-4473-9f0a-05d83862edbd" d="m83.61,67.23l-.19-.12.52-.97.84-.17.1-.04c.11-.06.19-.12.2-.26.03-.22-.11-.4-.33-.43-.05,0-1.21.25-1.21.25l-.71,1.23-.34-.21.33.78.78-.07Z"/>
    </g>
  </g>
</svg>